<svg width="20" height="20" viewBox="0 0 20 20" fill="none" xmlns="http://www.w3.org/2000/svg">
<circle cx="10" cy="10" r="10" fill="#9FA324"/>
<path d="M4.28 13V12.3525C4.44567 12.2148 4.63583 12.055 4.8505 11.873C5.06517 11.6887 5.28333 11.4938 5.505 11.2885C5.72667 11.0808 5.93083 10.8743 6.1175 10.669C6.30417 10.4613 6.45467 10.2653 6.569 10.081C6.68567 9.89433 6.744 9.73217 6.744 9.5945C6.744 9.43817 6.7055 9.29583 6.6285 9.1675C6.55383 9.03683 6.45233 8.933 6.324 8.856C6.19567 8.77667 6.05333 8.737 5.897 8.737C5.74067 8.737 5.59717 8.77667 5.4665 8.856C5.33817 8.933 5.23433 9.03683 5.155 9.1675C5.078 9.29583 5.0395 9.43817 5.0395 9.5945H4.3115C4.3115 9.29817 4.38383 9.031 4.5285 8.793C4.6755 8.55267 4.868 8.3625 5.106 8.2225C5.34633 8.08017 5.61 8.009 5.897 8.009C6.18633 8.009 6.45 8.08017 6.688 8.2225C6.926 8.36483 7.11617 8.55617 7.2585 8.7965C7.40083 9.0345 7.472 9.3005 7.472 9.5945C7.472 9.75783 7.43817 9.92583 7.3705 10.0985C7.30283 10.2712 7.20833 10.4473 7.087 10.627C6.968 10.8067 6.82917 10.9887 6.6705 11.173C6.51183 11.3573 6.3415 11.5417 6.1595 11.726C5.9775 11.9103 5.792 12.0923 5.603 12.272H7.514V13H4.28ZM9.83116 13.091C9.52083 13.091 9.23966 13.0163 8.98766 12.867C8.738 12.7153 8.53966 12.5147 8.39266 12.265C8.248 12.013 8.17566 11.7377 8.17566 11.439H8.90366C8.90366 11.6093 8.94566 11.7645 9.02966 11.9045C9.11366 12.0445 9.22566 12.1565 9.36566 12.2405C9.50566 12.3222 9.66083 12.363 9.83116 12.363C9.99916 12.363 10.1532 12.3222 10.2932 12.2405C10.4332 12.1565 10.5452 12.0445 10.6292 11.9045C10.7132 11.7645 10.7552 11.6093 10.7552 11.439C10.7552 11.2687 10.7167 11.1135 10.6397 10.9735C10.5627 10.8312 10.4472 10.718 10.2932 10.634C10.1392 10.5477 9.94316 10.5045 9.70516 10.5045H8.46966L8.96666 8.1H11.3362V8.828H9.55816L9.36566 9.7765L9.78916 9.7835C10.1228 9.7905 10.4157 9.8675 10.6677 10.0145C10.922 10.1592 11.1215 10.3552 11.2662 10.6025C11.4108 10.8475 11.4832 11.1263 11.4832 11.439C11.4832 11.6653 11.44 11.8788 11.3537 12.0795C11.2673 12.2778 11.1483 12.4528 10.9967 12.6045C10.8473 12.7562 10.6723 12.8752 10.4717 12.9615C10.2733 13.0478 10.0598 13.091 9.83116 13.091ZM13.5683 12.65V11.264H12.1823V10.536H13.5683V9.15H14.2963V10.536H15.6823V11.264H14.2963V12.65H13.5683Z" fill="white"/>
</svg>
