<svg width="102" height="33" viewBox="0 0 102 33" fill="none" xmlns="http://www.w3.org/2000/svg">
<rect y="0.78125" width="102" height="31.9082" rx="15.9541" fill="#E2FFF5"/>
<path d="M23.881 20.7812V10.9812H27.325C27.8477 10.9812 28.319 11.1096 28.739 11.3662C29.1637 11.6229 29.4997 11.9706 29.747 12.4092C29.999 12.8432 30.125 13.3286 30.125 13.8652C30.125 14.3366 30.0317 14.7659 29.845 15.1532C29.6583 15.5406 29.4017 15.8649 29.075 16.1262C28.753 16.3829 28.3867 16.5602 27.976 16.6582L30.356 20.7812H28.998L26.66 16.7562H25.057V20.7812H23.881ZM25.057 15.5802H27.206C27.5233 15.5802 27.815 15.5032 28.081 15.3492C28.347 15.1906 28.557 14.9782 28.711 14.7122C28.8697 14.4416 28.949 14.1382 28.949 13.8022C28.949 13.4616 28.8697 13.1582 28.711 12.8922C28.557 12.6216 28.347 12.4092 28.081 12.2552C27.815 12.0966 27.5233 12.0172 27.206 12.0172H25.057V15.5802ZM34.5899 20.9633C33.9459 20.9633 33.3579 20.7976 32.8259 20.4662C32.2986 20.1349 31.8763 19.6916 31.5589 19.1362C31.2463 18.5762 31.0899 17.9579 31.0899 17.2812C31.0899 16.7679 31.1809 16.2896 31.3629 15.8462C31.5449 15.3982 31.7946 15.0062 32.1119 14.6702C32.4339 14.3296 32.8073 14.0636 33.2319 13.8722C33.6566 13.6809 34.1093 13.5853 34.5899 13.5853C35.1173 13.5853 35.6003 13.6926 36.0389 13.9072C36.4823 14.1172 36.8603 14.4112 37.1729 14.7892C37.4903 15.1672 37.7259 15.6059 37.8799 16.1052C38.0386 16.6046 38.0969 17.1389 38.0549 17.7082H32.3429C32.3989 18.1049 32.5296 18.4596 32.7349 18.7722C32.9403 19.0802 33.2016 19.3252 33.5189 19.5072C33.8409 19.6892 34.1979 19.7826 34.5899 19.7872C35.0099 19.7872 35.3903 19.6799 35.7309 19.4652C36.0716 19.2459 36.3469 18.9472 36.5569 18.5692L37.7539 18.8492C37.4739 19.4699 37.0516 19.9786 36.4869 20.3752C35.9223 20.7672 35.2899 20.9633 34.5899 20.9633ZM32.3079 16.7842H36.8719C36.8346 16.3922 36.7086 16.0352 36.4939 15.7132C36.2793 15.3866 36.0063 15.1252 35.6749 14.9292C35.3436 14.7332 34.9819 14.6352 34.5899 14.6352C34.1979 14.6352 33.8386 14.7309 33.5119 14.9222C33.1853 15.1136 32.9146 15.3726 32.6999 15.6992C32.4899 16.0212 32.3593 16.3829 32.3079 16.7842ZM44.0165 18.9333L45.0665 19.5002C44.7492 19.9436 44.3455 20.2982 43.8555 20.5642C43.3702 20.8302 42.8428 20.9633 42.2735 20.9633C41.6295 20.9633 41.0415 20.7976 40.5095 20.4662C39.9822 20.1349 39.5598 19.6916 39.2425 19.1362C38.9298 18.5762 38.7735 17.9579 38.7735 17.2812C38.7735 16.7679 38.8645 16.2896 39.0465 15.8462C39.2285 15.3982 39.4782 15.0062 39.7955 14.6702C40.1175 14.3296 40.4908 14.0636 40.9155 13.8722C41.3402 13.6809 41.7928 13.5853 42.2735 13.5853C42.8428 13.5853 43.3702 13.7182 43.8555 13.9842C44.3455 14.2502 44.7492 14.6072 45.0665 15.0552L44.0165 15.6222C43.7925 15.3469 43.5265 15.1346 43.2185 14.9852C42.9105 14.8359 42.5955 14.7612 42.2735 14.7612C41.8395 14.7612 41.4452 14.8779 41.0905 15.1112C40.7405 15.3399 40.4628 15.6456 40.2575 16.0282C40.0522 16.4109 39.9495 16.8286 39.9495 17.2812C39.9495 17.7339 40.0522 18.1516 40.2575 18.5342C40.4675 18.9122 40.7475 19.2156 41.0975 19.4442C41.4522 19.6729 41.8442 19.7872 42.2735 19.7872C42.6188 19.7872 42.9432 19.7079 43.2465 19.5492C43.5498 19.3906 43.8065 19.1852 44.0165 18.9333ZM49.2872 20.9633C48.6432 20.9633 48.0552 20.7976 47.5232 20.4662C46.9959 20.1349 46.5735 19.6916 46.2562 19.1362C45.9435 18.5762 45.7872 17.9579 45.7872 17.2812C45.7872 16.7679 45.8782 16.2896 46.0602 15.8462C46.2422 15.3982 46.4919 15.0062 46.8092 14.6702C47.1312 14.3296 47.5045 14.0636 47.9292 13.8722C48.3539 13.6809 48.8065 13.5853 49.2872 13.5853C49.8145 13.5853 50.2975 13.6926 50.7362 13.9072C51.1795 14.1172 51.5575 14.4112 51.8702 14.7892C52.1875 15.1672 52.4232 15.6059 52.5772 16.1052C52.7359 16.6046 52.7942 17.1389 52.7522 17.7082H47.0402C47.0962 18.1049 47.2269 18.4596 47.4322 18.7722C47.6375 19.0802 47.8989 19.3252 48.2162 19.5072C48.5382 19.6892 48.8952 19.7826 49.2872 19.7872C49.7072 19.7872 50.0875 19.6799 50.4282 19.4652C50.7689 19.2459 51.0442 18.9472 51.2542 18.5692L52.4512 18.8492C52.1712 19.4699 51.7489 19.9786 51.1842 20.3752C50.6195 20.7672 49.9872 20.9633 49.2872 20.9633ZM47.0052 16.7842H51.5692C51.5319 16.3922 51.4059 16.0352 51.1912 15.7132C50.9765 15.3866 50.7035 15.1252 50.3722 14.9292C50.0409 14.7332 49.6792 14.6352 49.2872 14.6352C48.8952 14.6352 48.5359 14.7309 48.2092 14.9222C47.8825 15.1136 47.6119 15.3726 47.3972 15.6992C47.1872 16.0212 47.0565 16.3829 47.0052 16.7842ZM53.8361 13.7812H55.0121V20.7812H53.8361V13.7812ZM54.4381 12.6402C54.2514 12.6402 54.0951 12.5796 53.9691 12.4582C53.8431 12.3369 53.7801 12.1852 53.7801 12.0032C53.7801 11.8212 53.8431 11.6696 53.9691 11.5482C54.0951 11.4269 54.2491 11.3662 54.4311 11.3662C54.6131 11.3662 54.7671 11.4269 54.8931 11.5482C55.0191 11.6696 55.0821 11.8212 55.0821 12.0032C55.0821 12.1852 55.0191 12.3369 54.8931 12.4582C54.7718 12.5796 54.6201 12.6402 54.4381 12.6402ZM60.2105 20.7812H58.7055L56.1505 13.7672H57.4035L59.4545 19.4162L61.5055 13.7672H62.7585L60.2105 20.7812ZM66.7052 20.9633C66.0612 20.9633 65.4732 20.7976 64.9412 20.4662C64.4138 20.1349 63.9915 19.6916 63.6742 19.1362C63.3615 18.5762 63.2052 17.9579 63.2052 17.2812C63.2052 16.7679 63.2962 16.2896 63.4782 15.8462C63.6602 15.3982 63.9098 15.0062 64.2272 14.6702C64.5492 14.3296 64.9225 14.0636 65.3472 13.8722C65.7718 13.6809 66.2245 13.5853 66.7052 13.5853C67.2325 13.5853 67.7155 13.6926 68.1542 13.9072C68.5975 14.1172 68.9755 14.4112 69.2882 14.7892C69.6055 15.1672 69.8412 15.6059 69.9952 16.1052C70.1538 16.6046 70.2122 17.1389 70.1702 17.7082H64.4582C64.5142 18.1049 64.6448 18.4596 64.8502 18.7722C65.0555 19.0802 65.3168 19.3252 65.6342 19.5072C65.9562 19.6892 66.3132 19.7826 66.7052 19.7872C67.1252 19.7872 67.5055 19.6799 67.8462 19.4652C68.1868 19.2459 68.4622 18.9472 68.6722 18.5692L69.8692 18.8492C69.5892 19.4699 69.1668 19.9786 68.6022 20.3752C68.0375 20.7672 67.4052 20.9633 66.7052 20.9633ZM64.4232 16.7842H68.9872C68.9498 16.3922 68.8238 16.0352 68.6092 15.7132C68.3945 15.3866 68.1215 15.1252 67.7902 14.9292C67.4588 14.7332 67.0972 14.6352 66.7052 14.6352C66.3132 14.6352 65.9538 14.7309 65.6272 14.9222C65.3005 15.1136 65.0298 15.3726 64.8152 15.6992C64.6052 16.0212 64.4745 16.3829 64.4232 16.7842ZM76.9438 10.2812H78.1198V20.7812H76.9438V19.5912C76.7058 20.0019 76.3861 20.3332 75.9848 20.5852C75.5834 20.8373 75.1121 20.9633 74.5708 20.9633C74.0621 20.9633 73.5861 20.8676 73.1428 20.6762C72.6994 20.4849 72.3074 20.2212 71.9668 19.8852C71.6308 19.5446 71.3671 19.1526 71.1758 18.7092C70.9844 18.2659 70.8888 17.7899 70.8888 17.2812C70.8888 16.7726 70.9844 16.2966 71.1758 15.8532C71.3671 15.4052 71.6308 15.0132 71.9668 14.6772C72.3074 14.3366 72.6994 14.0706 73.1428 13.8792C73.5861 13.6879 74.0621 13.5922 74.5708 13.5922C75.1121 13.5922 75.5834 13.7182 75.9848 13.9702C76.3861 14.2222 76.7058 14.5536 76.9438 14.9642V10.2812ZM74.5847 19.8222C75.0468 19.8222 75.4458 19.7102 75.7818 19.4862C76.1224 19.2576 76.3838 18.9496 76.5658 18.5622C76.7524 18.1749 76.8458 17.7479 76.8458 17.2812C76.8458 16.8052 76.7524 16.3759 76.5658 15.9932C76.3791 15.6059 76.1154 15.3002 75.7748 15.0762C75.4388 14.8476 75.0421 14.7332 74.5847 14.7332C74.1228 14.7332 73.7028 14.8476 73.3248 15.0762C72.9514 15.3049 72.6528 15.6129 72.4288 16.0002C72.2048 16.3829 72.0928 16.8099 72.0928 17.2812C72.0928 17.7526 72.2071 18.1819 72.4358 18.5692C72.6644 18.9519 72.9678 19.2576 73.3458 19.4862C73.7238 19.7102 74.1368 19.8222 74.5847 19.8222Z" fill="#34C759"/>
</svg>
