<svg width="184" height="167" viewBox="0 0 184 167" fill="none" xmlns="http://www.w3.org/2000/svg">
<path fill-rule="evenodd" clip-rule="evenodd" d="M98.6455 139.025L98.6455 153.574C107.581 153.574 116.429 151.86 124.685 148.529C132.94 145.198 140.442 140.316 146.76 134.162C153.079 128.007 158.091 120.7 161.51 112.659C164.93 104.618 166.69 95.999 166.69 87.295H151.753C151.753 115.865 127.976 139.025 98.6455 139.025Z" fill="#F5F5F5"/>
<path fill-rule="evenodd" clip-rule="evenodd" d="M173.011 57.291C177.056 66.8034 179.138 76.9987 179.138 87.2948H151.753C151.753 87.2948 151.753 87.2948 151.753 87.2947C151.753 58.7251 127.976 35.5648 98.6462 35.5645L98.6462 8.89112C109.216 8.89112 119.683 10.9191 129.449 14.8592C139.215 18.7994 148.088 24.5746 155.562 31.855C163.037 39.1355 168.965 47.7787 173.011 57.291Z" fill="#9FA324"/>
<path fill-rule="evenodd" clip-rule="evenodd" d="M35.276 25.5681C18.4691 41.939 9.0271 64.1428 9.0271 87.2949H45.5388C45.5388 87.2948 45.5388 87.2948 45.5388 87.2947C45.5388 58.7249 69.3159 35.5645 98.6464 35.5645V0C74.8779 0 52.0829 9.19711 35.276 25.5681Z" fill="#FDCF24"/>
<mask id="mask0_2_1849" style="mask-type:alpha" maskUnits="userSpaceOnUse" x="9" y="0" width="171" height="154">
<path fill-rule="evenodd" clip-rule="evenodd" d="M98.6455 139.025L98.6455 153.574C107.581 153.574 116.429 151.86 124.685 148.529C132.94 145.198 140.442 140.316 146.76 134.162C153.079 128.007 158.091 120.7 161.51 112.659C164.93 104.618 166.69 95.999 166.69 87.295H151.753C151.753 115.865 127.976 139.025 98.6455 139.025Z" fill="#F6F6F6"/>
<path fill-rule="evenodd" clip-rule="evenodd" d="M173.011 57.291C177.056 66.8034 179.138 76.9987 179.138 87.2948H151.753C151.753 87.2948 151.753 87.2948 151.753 87.2947C151.753 58.7251 127.977 35.5648 98.6462 35.5644L98.6462 8.89111C109.217 8.89111 119.683 10.9191 129.449 14.8592C139.215 18.7994 148.088 24.5746 155.562 31.855C163.037 39.1355 168.966 47.7786 173.011 57.291Z" fill="#52D6B7"/>
<path fill-rule="evenodd" clip-rule="evenodd" d="M35.276 25.5681C18.4691 41.939 9.0271 64.1428 9.0271 87.2949H45.5388C45.5388 87.2948 45.5388 87.2948 45.5388 87.2947C45.5388 58.7249 69.3159 35.5645 98.6464 35.5645V0C74.8779 0 52.0829 9.19711 35.276 25.5681Z" fill="#84E8F4"/>
</mask>
<g mask="url(#mask0_2_1849)">
<ellipse opacity="0.35" cx="160.882" cy="28.2899" rx="29.0433" ry="28.29" fill="white"/>
<ellipse opacity="0.35" cx="185.777" cy="89.7197" rx="29.0433" ry="28.29" fill="white"/>
<ellipse opacity="0.35" cx="41.3897" cy="99.419" rx="29.0433" ry="28.29" fill="white"/>
<ellipse opacity="0.35" cx="59.6453" cy="-3.8147e-05" rx="29.0433" ry="28.29" fill="white"/>
</g>
<g filter="url(#filter0_d_2_1849)">
<ellipse cx="98.6465" cy="87.2947" rx="53.1077" ry="51.7303" fill="white"/>
</g>
<path d="M98.6473 75.9785C96.3497 75.9785 94.1036 76.6422 92.1931 77.8856C90.2827 79.129 88.7936 80.8963 87.9143 82.9641C87.0351 85.0318 86.805 87.3071 87.2533 89.5022C87.7015 91.6972 88.808 93.7136 90.4327 95.2961C92.0574 96.8787 94.1274 97.9565 96.3809 98.3931C98.6345 98.8297 100.97 98.6056 103.093 97.7491C105.216 96.8927 107.03 95.4423 108.307 93.5814C109.583 91.7204 110.265 89.5326 110.265 87.2945H98.6473V75.9785Z" fill="#9FA324"/>
<g filter="url(#filter1_d_2_1849)">
<ellipse cx="152.584" cy="138.216" rx="16.5962" ry="16.1657" fill="white"/>
<path d="M144.675 142.559V136.219H143.867L144.109 135.354H145.54V142.559H144.675ZM149.093 142.692C148.664 142.692 148.273 142.595 147.92 142.399C147.57 142.204 147.29 141.943 147.081 141.617C146.875 141.288 146.772 140.924 146.772 140.526C146.772 140.155 146.87 139.816 147.065 139.507C147.261 139.195 147.516 138.948 147.832 138.766C147.575 138.601 147.362 138.384 147.194 138.113C147.029 137.838 146.947 137.541 146.947 137.222C146.947 136.852 147.043 136.516 147.235 136.214C147.431 135.912 147.69 135.672 148.012 135.493C148.338 135.312 148.698 135.221 149.093 135.221C149.487 135.221 149.846 135.312 150.168 135.493C150.494 135.672 150.753 135.912 150.945 136.214C151.141 136.516 151.239 136.852 151.239 137.222C151.239 137.541 151.156 137.838 150.992 138.113C150.827 138.384 150.613 138.601 150.348 138.766C150.674 138.948 150.933 139.195 151.125 139.507C151.321 139.816 151.419 140.155 151.419 140.526C151.419 140.92 151.314 141.282 151.105 141.612C150.896 141.941 150.614 142.204 150.261 142.399C149.911 142.595 149.522 142.692 149.093 142.692ZM149.093 141.828C149.354 141.828 149.589 141.77 149.798 141.653C150.011 141.536 150.18 141.38 150.307 141.185C150.434 140.986 150.498 140.766 150.498 140.526C150.498 140.282 150.434 140.063 150.307 139.867C150.18 139.672 150.011 139.516 149.798 139.399C149.589 139.282 149.354 139.224 149.093 139.224C148.836 139.224 148.601 139.282 148.388 139.399C148.175 139.516 148.005 139.672 147.878 139.867C147.751 140.063 147.688 140.282 147.688 140.526C147.688 140.766 147.751 140.986 147.878 141.185C148.005 141.38 148.175 141.536 148.388 141.653C148.601 141.77 148.836 141.828 149.093 141.828ZM149.093 138.36C149.319 138.36 149.525 138.308 149.71 138.205C149.896 138.102 150.043 137.965 150.153 137.794C150.266 137.622 150.323 137.432 150.323 137.222C150.323 137.01 150.266 136.819 150.153 136.651C150.043 136.48 149.896 136.342 149.71 136.239C149.525 136.137 149.319 136.085 149.093 136.085C148.866 136.085 148.661 136.137 148.475 136.239C148.29 136.342 148.141 136.48 148.028 136.651C147.918 136.819 147.863 137.01 147.863 137.222C147.863 137.432 147.918 137.622 148.028 137.794C148.141 137.965 148.29 138.102 148.475 138.205C148.661 138.308 148.866 138.36 149.093 138.36ZM152.703 142.559L156.86 135.354H157.859L153.701 142.559H152.703ZM153.557 138.252C153.313 138.252 153.092 138.193 152.893 138.077C152.698 137.96 152.54 137.802 152.42 137.603C152.3 137.404 152.24 137.183 152.24 136.939C152.24 136.689 152.3 136.466 152.42 136.27C152.54 136.071 152.699 135.914 152.898 135.797C153.097 135.68 153.317 135.622 153.557 135.622C153.797 135.622 154.017 135.682 154.216 135.802C154.415 135.919 154.572 136.077 154.689 136.276C154.809 136.471 154.869 136.692 154.869 136.939C154.869 137.186 154.809 137.409 154.689 137.608C154.569 137.804 154.409 137.96 154.21 138.077C154.011 138.193 153.794 138.252 153.557 138.252ZM153.557 137.619C153.746 137.619 153.905 137.553 154.035 137.423C154.169 137.289 154.236 137.128 154.236 136.939C154.236 136.747 154.169 136.586 154.035 136.456C153.905 136.322 153.746 136.255 153.557 136.255C153.368 136.255 153.207 136.322 153.073 136.456C152.939 136.586 152.872 136.747 152.872 136.939C152.872 137.128 152.939 137.289 153.073 137.423C153.207 137.553 153.368 137.619 153.557 137.619ZM157.01 142.296C156.77 142.296 156.548 142.236 156.346 142.116C156.147 141.993 155.987 141.831 155.867 141.632C155.751 141.43 155.692 141.212 155.692 140.979C155.692 140.732 155.752 140.509 155.872 140.31C155.996 140.111 156.157 139.953 156.356 139.836C156.555 139.72 156.773 139.661 157.01 139.661C157.257 139.661 157.48 139.723 157.679 139.847C157.878 139.967 158.035 140.126 158.152 140.325C158.269 140.524 158.327 140.742 158.327 140.979C158.327 141.222 158.267 141.444 158.147 141.643C158.03 141.842 157.873 142.001 157.674 142.121C157.475 142.238 157.253 142.296 157.01 142.296ZM157.01 141.663C157.198 141.663 157.36 141.596 157.493 141.463C157.627 141.329 157.694 141.168 157.694 140.979C157.694 140.79 157.627 140.629 157.493 140.495C157.36 140.361 157.198 140.294 157.01 140.294C156.821 140.294 156.66 140.361 156.526 140.495C156.392 140.629 156.325 140.79 156.325 140.979C156.325 141.168 156.392 141.329 156.526 141.463C156.66 141.596 156.821 141.663 157.01 141.663Z" fill="#747681"/>
</g>
<g filter="url(#filter2_d_2_1849)">
<ellipse cx="158.393" cy="29.0983" rx="16.5962" ry="16.1657" fill="white"/>
<path d="M149.676 33.4404V32.6737C149.94 32.437 150.237 32.1728 150.566 31.8812C150.896 31.5862 151.223 31.2792 151.549 30.9601C151.878 30.6377 152.18 30.3186 152.455 30.003C152.729 29.6874 152.951 29.3889 153.119 29.1076C153.287 28.8229 153.371 28.5742 153.371 28.3615C153.371 28.1076 153.309 27.8761 153.186 27.6668C153.062 27.4541 152.896 27.2843 152.686 27.1574C152.481 27.0304 152.251 26.967 151.997 26.967C151.743 26.967 151.51 27.0304 151.297 27.1574C151.088 27.2843 150.92 27.4541 150.793 27.6668C150.669 27.8761 150.607 28.1076 150.607 28.3615H149.743C149.743 27.9395 149.846 27.5587 150.052 27.2191C150.258 26.876 150.53 26.605 150.87 26.4061C151.21 26.2037 151.585 26.1025 151.997 26.1025C152.409 26.1025 152.782 26.2037 153.119 26.4061C153.458 26.6085 153.729 26.8812 153.932 27.2242C154.134 27.5639 154.235 27.943 154.235 28.3615C154.235 28.6016 154.177 28.8606 154.06 29.1385C153.944 29.4129 153.784 29.696 153.582 29.9876C153.379 30.2792 153.15 30.5742 152.892 30.8727C152.635 31.1677 152.364 31.4593 152.079 31.7474C151.794 32.0356 151.511 32.3118 151.23 32.5759H154.328V33.4404H149.676ZM157.675 33.5742C157.247 33.5742 156.855 33.4765 156.502 33.2809C156.152 33.0854 155.873 32.8246 155.663 32.4987C155.458 32.1694 155.355 31.8058 155.355 31.4078C155.355 31.0373 155.452 30.6977 155.648 30.3889C155.843 30.0768 156.099 29.8298 156.415 29.6479C156.157 29.4833 155.945 29.2654 155.777 28.9944C155.612 28.72 155.53 28.4232 155.53 28.1042C155.53 27.7337 155.626 27.3975 155.818 27.0956C156.013 26.7937 156.272 26.5536 156.595 26.3752C156.921 26.1934 157.281 26.1025 157.675 26.1025C158.07 26.1025 158.428 26.1934 158.751 26.3752C159.077 26.5536 159.336 26.7937 159.528 27.0956C159.723 27.3975 159.821 27.7337 159.821 28.1042C159.821 28.4232 159.739 28.72 159.574 28.9944C159.41 29.2654 159.195 29.4833 158.931 29.6479C159.257 29.8298 159.516 30.0768 159.708 30.3889C159.904 30.6977 160.001 31.0373 160.001 31.4078C160.001 31.8023 159.897 32.1643 159.687 32.4936C159.478 32.8229 159.197 33.0854 158.843 33.2809C158.494 33.4765 158.104 33.5742 157.675 33.5742ZM157.675 32.7097C157.936 32.7097 158.171 32.6514 158.38 32.5348C158.593 32.4181 158.763 32.262 158.89 32.0665C159.017 31.8675 159.08 31.648 159.08 31.4078C159.08 31.1643 159.017 30.9447 158.89 30.7492C158.763 30.5536 158.593 30.3975 158.38 30.2809C158.171 30.1642 157.936 30.1059 157.675 30.1059C157.418 30.1059 157.183 30.1642 156.97 30.2809C156.758 30.3975 156.588 30.5536 156.461 30.7492C156.334 30.9447 156.271 31.1643 156.271 31.4078C156.271 31.648 156.334 31.8675 156.461 32.0665C156.588 32.262 156.758 32.4181 156.97 32.5348C157.183 32.6514 157.418 32.7097 157.675 32.7097ZM157.675 29.2414C157.902 29.2414 158.108 29.19 158.293 29.087C158.478 28.9841 158.626 28.8469 158.735 28.6754C158.849 28.5038 158.905 28.3135 158.905 28.1042C158.905 27.8915 158.849 27.7011 158.735 27.533C158.626 27.3615 158.478 27.2242 158.293 27.1213C158.108 27.0184 157.902 26.967 157.675 26.967C157.449 26.967 157.243 27.0184 157.058 27.1213C156.873 27.2242 156.723 27.3615 156.61 27.533C156.5 27.7011 156.446 27.8915 156.446 28.1042C156.446 28.3135 156.5 28.5038 156.61 28.6754C156.723 28.8469 156.873 28.9841 157.058 29.087C157.243 29.19 157.449 29.2414 157.675 29.2414ZM161.285 33.4404L165.443 26.2362H166.441L162.283 33.4404H161.285ZM162.139 29.1334C161.896 29.1334 161.675 29.075 161.476 28.9584C161.28 28.8418 161.122 28.684 161.002 28.485C160.882 28.286 160.822 28.0647 160.822 27.8212C160.822 27.5707 160.882 27.3477 161.002 27.1522C161.122 26.9532 161.282 26.7954 161.481 26.6788C161.68 26.5621 161.899 26.5038 162.139 26.5038C162.38 26.5038 162.599 26.5639 162.798 26.6839C162.997 26.8006 163.155 26.9584 163.271 27.1574C163.392 27.3529 163.452 27.5742 163.452 27.8212C163.452 28.0682 163.392 28.2912 163.271 28.4901C163.151 28.6857 162.992 28.8418 162.793 28.9584C162.594 29.075 162.376 29.1334 162.139 29.1334ZM162.139 28.5004C162.328 28.5004 162.488 28.4352 162.618 28.3049C162.752 28.1711 162.819 28.0098 162.819 27.8212C162.819 27.6291 162.752 27.4678 162.618 27.3375C162.488 27.2037 162.328 27.1368 162.139 27.1368C161.951 27.1368 161.789 27.2037 161.656 27.3375C161.522 27.4678 161.455 27.6291 161.455 27.8212C161.455 28.0098 161.522 28.1711 161.656 28.3049C161.789 28.4352 161.951 28.5004 162.139 28.5004ZM165.592 33.178C165.352 33.178 165.131 33.118 164.928 32.9979C164.729 32.8744 164.57 32.7132 164.45 32.5142C164.333 32.3118 164.275 32.0939 164.275 31.8607C164.275 31.6137 164.335 31.3907 164.455 31.1917C164.579 30.9927 164.74 30.8349 164.939 30.7183C165.138 30.6016 165.356 30.5433 165.592 30.5433C165.839 30.5433 166.062 30.6051 166.261 30.7286C166.46 30.8486 166.618 31.0082 166.735 31.2071C166.851 31.4061 166.91 31.6239 166.91 31.8607C166.91 32.1042 166.85 32.3255 166.729 32.5245C166.613 32.7234 166.455 32.883 166.256 33.003C166.057 33.1197 165.836 33.178 165.592 33.178ZM165.592 32.5451C165.781 32.5451 165.942 32.4782 166.076 32.3444C166.21 32.2106 166.277 32.0493 166.277 31.8607C166.277 31.672 166.21 31.5107 166.076 31.3769C165.942 31.2432 165.781 31.1763 165.592 31.1763C165.404 31.1763 165.242 31.2432 165.109 31.3769C164.975 31.5107 164.908 31.672 164.908 31.8607C164.908 32.0493 164.975 32.2106 165.109 32.3444C165.242 32.4782 165.404 32.5451 165.592 32.5451Z" fill="#747681"/>
</g>
<g filter="url(#filter3_d_2_1849)">
<ellipse cx="25.6233" cy="39.606" rx="16.5962" ry="16.1657" fill="white"/>
<path d="M20.0043 43.9481V42.003H16.9065V41.1282L19.7882 36.7439H20.8688V41.1385H21.5841V42.003H20.8688V43.9481H20.0043ZM17.9203 41.1282L20.0043 41.1385L19.9889 37.9584L17.9203 41.1282ZM22.8879 43.9481L26.5415 37.6084H22.4094V36.7439H27.5398V37.6084L23.8759 43.9481H22.8879ZM28.6162 43.9481L32.774 36.7439H33.7723L29.6144 43.9481H28.6162ZM29.4704 39.641C29.2268 39.641 29.0055 39.5827 28.8066 39.4661C28.611 39.3494 28.4532 39.1916 28.3331 38.9927C28.2131 38.7937 28.153 38.5724 28.153 38.3289C28.153 38.0784 28.2131 37.8554 28.3331 37.6599C28.4532 37.4609 28.6127 37.3031 28.8117 37.1865C29.0107 37.0698 29.2302 37.0115 29.4704 37.0115C29.7105 37.0115 29.9301 37.0716 30.129 37.1916C30.328 37.3083 30.4858 37.4661 30.6025 37.665C30.7225 37.8606 30.7826 38.0819 30.7826 38.3289C30.7826 38.5759 30.7225 38.7988 30.6025 38.9978C30.4824 39.1934 30.3229 39.3494 30.1239 39.4661C29.9249 39.5827 29.7071 39.641 29.4704 39.641ZM29.4704 39.0081C29.659 39.0081 29.8186 38.9429 29.9489 38.8126C30.0827 38.6788 30.1496 38.5175 30.1496 38.3289C30.1496 38.1367 30.0827 37.9755 29.9489 37.8451C29.8186 37.7114 29.659 37.6445 29.4704 37.6445C29.2817 37.6445 29.1204 37.7114 28.9867 37.8451C28.8529 37.9755 28.786 38.1367 28.786 38.3289C28.786 38.5175 28.8529 38.6788 28.9867 38.8126C29.1204 38.9429 29.2817 39.0081 29.4704 39.0081ZM32.9232 43.6857C32.6831 43.6857 32.4618 43.6256 32.2594 43.5056C32.0604 43.3821 31.9009 43.2208 31.7808 43.0219C31.6642 42.8195 31.6059 42.6016 31.6059 42.3683C31.6059 42.1213 31.6659 41.8984 31.786 41.6994C31.9095 41.5004 32.0707 41.3426 32.2697 41.226C32.4687 41.1093 32.6865 41.051 32.9232 41.051C33.1702 41.051 33.3932 41.1128 33.5922 41.2363C33.7912 41.3563 33.949 41.5159 34.0656 41.7148C34.1822 41.9138 34.2406 42.1316 34.2406 42.3683C34.2406 42.6119 34.1805 42.8332 34.0605 43.0322C33.9438 43.2311 33.786 43.3907 33.587 43.5107C33.3881 43.6274 33.1668 43.6857 32.9232 43.6857ZM32.9232 43.0527C33.1119 43.0527 33.2731 42.9858 33.4069 42.8521C33.5407 42.7183 33.6076 42.557 33.6076 42.3683C33.6076 42.1797 33.5407 42.0184 33.4069 41.8846C33.2731 41.7508 33.1119 41.6839 32.9232 41.6839C32.7345 41.6839 32.5733 41.7508 32.4395 41.8846C32.3057 42.0184 32.2388 42.1797 32.2388 42.3683C32.2388 42.557 32.3057 42.7183 32.4395 42.8521C32.5733 42.9858 32.7345 43.0527 32.9232 43.0527Z" fill="#747681"/>
</g>
<defs>
<filter id="filter0_d_2_1849" x="31.8166" y="21.8422" width="133.66" height="130.905" filterUnits="userSpaceOnUse" color-interpolation-filters="sRGB">
<feFlood flood-opacity="0" result="BackgroundImageFix"/>
<feColorMatrix in="SourceAlpha" type="matrix" values="0 0 0 0 0 0 0 0 0 0 0 0 0 0 0 0 0 0 127 0" result="hardAlpha"/>
<feOffset/>
<feGaussianBlur stdDeviation="6.86113"/>
<feColorMatrix type="matrix" values="0 0 0 0 0 0 0 0 0 0 0 0 0 0 0 0 0 0 0.1 0"/>
<feBlend mode="normal" in2="BackgroundImageFix" result="effect1_dropShadow_2_1849"/>
<feBlend mode="normal" in="SourceGraphic" in2="effect1_dropShadow_2_1849" result="shape"/>
</filter>
<filter id="filter1_d_2_1849" x="127.412" y="116.905" width="50.3452" height="49.4842" filterUnits="userSpaceOnUse" color-interpolation-filters="sRGB">
<feFlood flood-opacity="0" result="BackgroundImageFix"/>
<feColorMatrix in="SourceAlpha" type="matrix" values="0 0 0 0 0 0 0 0 0 0 0 0 0 0 0 0 0 0 127 0" result="hardAlpha"/>
<feOffset dy="3.43056"/>
<feGaussianBlur stdDeviation="4.2882"/>
<feColorMatrix type="matrix" values="0 0 0 0 0 0 0 0 0 0 0 0 0 0 0 0 0 0 0.12 0"/>
<feBlend mode="normal" in2="BackgroundImageFix" result="effect1_dropShadow_2_1849"/>
<feBlend mode="normal" in="SourceGraphic" in2="effect1_dropShadow_2_1849" result="shape"/>
</filter>
<filter id="filter2_d_2_1849" x="133.22" y="7.78677" width="50.3452" height="49.4842" filterUnits="userSpaceOnUse" color-interpolation-filters="sRGB">
<feFlood flood-opacity="0" result="BackgroundImageFix"/>
<feColorMatrix in="SourceAlpha" type="matrix" values="0 0 0 0 0 0 0 0 0 0 0 0 0 0 0 0 0 0 127 0" result="hardAlpha"/>
<feOffset dy="3.43056"/>
<feGaussianBlur stdDeviation="4.2882"/>
<feColorMatrix type="matrix" values="0 0 0 0 0 0 0 0 0 0 0 0 0 0 0 0 0 0 0.12 0"/>
<feBlend mode="normal" in2="BackgroundImageFix" result="effect1_dropShadow_2_1849"/>
<feBlend mode="normal" in="SourceGraphic" in2="effect1_dropShadow_2_1849" result="shape"/>
</filter>
<filter id="filter3_d_2_1849" x="0.45069" y="18.2945" width="50.3452" height="49.4842" filterUnits="userSpaceOnUse" color-interpolation-filters="sRGB">
<feFlood flood-opacity="0" result="BackgroundImageFix"/>
<feColorMatrix in="SourceAlpha" type="matrix" values="0 0 0 0 0 0 0 0 0 0 0 0 0 0 0 0 0 0 127 0" result="hardAlpha"/>
<feOffset dy="3.43056"/>
<feGaussianBlur stdDeviation="4.2882"/>
<feColorMatrix type="matrix" values="0 0 0 0 0 0 0 0 0 0 0 0 0 0 0 0 0 0 0.12 0"/>
<feBlend mode="normal" in2="BackgroundImageFix" result="effect1_dropShadow_2_1849"/>
<feBlend mode="normal" in="SourceGraphic" in2="effect1_dropShadow_2_1849" result="shape"/>
</filter>
</defs>
</svg>
