<svg width="654" height="239" viewBox="0 0 654 239" fill="none" xmlns="http://www.w3.org/2000/svg">
<path d="M3.745 47.8968C3.12433 47.8968 2.55733 47.7428 2.044 47.4348C1.53067 47.1268 1.12 46.7162 0.812 46.2028C0.504 45.6848 0.35 45.1132 0.35 44.4878C0.35 44.1378 0.389667 43.8322 0.469 43.5708C0.553 43.3095 0.676667 43.0272 0.84 42.7238L3.612 37.9148H4.977L2.996 41.3518C3.39733 41.2258 3.79633 41.1815 4.193 41.2188C4.58967 41.2562 4.96533 41.3635 5.32 41.5408C5.67933 41.7182 5.99667 41.9515 6.272 42.2408C6.54733 42.5302 6.76433 42.8662 6.923 43.2488C7.08167 43.6268 7.161 44.0398 7.161 44.4878C7.161 44.9592 7.07 45.4002 6.888 45.8108C6.71067 46.2215 6.46567 46.5832 6.153 46.8958C5.845 47.2085 5.48333 47.4535 5.068 47.6308C4.65267 47.8082 4.21167 47.8968 3.745 47.8968ZM3.745 46.7208C4.17433 46.7208 4.557 46.6158 4.893 46.4058C5.23367 46.1958 5.49967 45.9205 5.691 45.5798C5.887 45.2392 5.985 44.8752 5.985 44.4878C5.985 44.0818 5.88467 43.7108 5.684 43.3748C5.488 43.0388 5.21967 42.7705 4.879 42.5698C4.543 42.3645 4.16967 42.2618 3.759 42.2618C3.32967 42.2618 2.947 42.3668 2.611 42.5768C2.275 42.7868 2.009 43.0598 1.813 43.3958C1.62167 43.7318 1.526 44.0958 1.526 44.4878C1.526 44.9125 1.62867 45.2928 1.834 45.6288C2.03933 45.9648 2.31 46.2308 2.646 46.4268C2.98667 46.6228 3.353 46.7208 3.745 46.7208ZM11.7672 47.8968C11.1839 47.8968 10.6612 47.7662 10.1992 47.5048C9.73722 47.2388 9.34055 46.8725 9.00922 46.4058C8.67789 45.9392 8.42589 45.4002 8.25322 44.7888C8.08055 44.1728 7.99422 43.5148 7.99422 42.8148C7.99422 42.1148 8.08055 41.4568 8.25322 40.8408C8.42589 40.2248 8.67789 39.6858 9.00922 39.2238C9.34055 38.7572 9.73722 38.3932 10.1992 38.1318C10.6612 37.8658 11.1839 37.7328 11.7672 37.7328C12.3459 37.7328 12.8662 37.8658 13.3282 38.1318C13.7949 38.3932 14.1892 38.7572 14.5112 39.2238C14.8379 39.6858 15.0876 40.2248 15.2602 40.8408C15.4376 41.4568 15.5262 42.1148 15.5262 42.8148C15.5262 43.5148 15.4376 44.1728 15.2602 44.7888C15.0876 45.4002 14.8379 45.9392 14.5112 46.4058C14.1892 46.8725 13.7949 47.2388 13.3282 47.5048C12.8662 47.7662 12.3459 47.8968 11.7672 47.8968ZM11.7672 46.7208C12.3506 46.7208 12.8382 46.5412 13.2302 46.1818C13.6269 45.8178 13.9232 45.3395 14.1192 44.7468C14.3152 44.1542 14.4132 43.5102 14.4132 42.8148C14.4132 42.0822 14.3106 41.4218 14.1052 40.8338C13.9046 40.2412 13.6059 39.7722 13.2092 39.4268C12.8172 39.0815 12.3366 38.9088 11.7672 38.9088C11.3192 38.9088 10.9272 39.0138 10.5912 39.2238C10.2599 39.4338 9.98455 39.7208 9.76522 40.0848C9.54589 40.4488 9.38022 40.8665 9.26822 41.3378C9.16089 41.8045 9.10722 42.2968 9.10722 42.8148C9.10722 43.5102 9.20755 44.1565 9.40822 44.7538C9.60889 45.3465 9.90522 45.8225 10.2972 46.1818C10.6939 46.5412 11.1839 46.7208 11.7672 46.7208ZM22.4584 47.7148H21.1074L19.2454 44.5018L17.9574 46.0418V47.7148H16.7814V37.2148H17.9574V44.2148L20.8904 40.7148H22.4234L20.0434 43.5498L22.4584 47.7148Z" fill="#718096"/>
<path d="M3.745 97.8968C3.13833 97.8968 2.58767 97.7498 2.093 97.4558C1.59833 97.1618 1.20633 96.7698 0.917 96.2798C0.632333 95.7852 0.49 95.2415 0.49 94.6488H1.666C1.666 95.0268 1.75933 95.3745 1.946 95.6918C2.13267 96.0045 2.38233 96.2542 2.695 96.4408C3.01233 96.6275 3.36233 96.7208 3.745 96.7208C4.123 96.7208 4.46833 96.6275 4.781 96.4408C5.09367 96.2542 5.34333 96.0045 5.53 95.6918C5.71667 95.3745 5.81 95.0268 5.81 94.6488C5.81 94.2708 5.72133 93.9232 5.544 93.6058C5.37133 93.2885 5.117 93.0365 4.781 92.8498C4.445 92.6585 4.03667 92.5628 3.556 92.5628H1.141L2.093 87.9148H6.741V89.0908H3.045L2.59 91.3868L3.605 91.3938C4.27233 91.4078 4.858 91.5572 5.362 91.8418C5.87067 92.1218 6.26733 92.5045 6.552 92.9898C6.84133 93.4705 6.986 94.0235 6.986 94.6488C6.986 95.0922 6.902 95.5122 6.734 95.9088C6.566 96.3008 6.33267 96.6462 6.034 96.9448C5.73533 97.2435 5.39 97.4768 4.998 97.6448C4.61067 97.8128 4.193 97.8968 3.745 97.8968ZM11.5895 97.8968C11.0062 97.8968 10.4835 97.7662 10.0215 97.5048C9.55948 97.2388 9.16282 96.8725 8.83148 96.4058C8.50015 95.9392 8.24815 95.4002 8.07548 94.7888C7.90282 94.1728 7.81648 93.5148 7.81648 92.8148C7.81648 92.1148 7.90282 91.4568 8.07548 90.8408C8.24815 90.2248 8.50015 89.6858 8.83148 89.2238C9.16282 88.7572 9.55948 88.3932 10.0215 88.1318C10.4835 87.8658 11.0062 87.7328 11.5895 87.7328C12.1682 87.7328 12.6885 87.8658 13.1505 88.1318C13.6172 88.3932 14.0115 88.7572 14.3335 89.2238C14.6602 89.6858 14.9098 90.2248 15.0825 90.8408C15.2598 91.4568 15.3485 92.1148 15.3485 92.8148C15.3485 93.5148 15.2598 94.1728 15.0825 94.7888C14.9098 95.4002 14.6602 95.9392 14.3335 96.4058C14.0115 96.8725 13.6172 97.2388 13.1505 97.5048C12.6885 97.7662 12.1682 97.8968 11.5895 97.8968ZM11.5895 96.7208C12.1728 96.7208 12.6605 96.5412 13.0525 96.1818C13.4492 95.8178 13.7455 95.3395 13.9415 94.7468C14.1375 94.1542 14.2355 93.5102 14.2355 92.8148C14.2355 92.0822 14.1328 91.4218 13.9275 90.8338C13.7268 90.2412 13.4282 89.7722 13.0315 89.4268C12.6395 89.0815 12.1588 88.9088 11.5895 88.9088C11.1415 88.9088 10.7495 89.0138 10.4135 89.2238C10.0822 89.4338 9.80682 89.7208 9.58748 90.0848C9.36815 90.4488 9.20248 90.8665 9.09048 91.3378C8.98315 91.8045 8.92948 92.2968 8.92948 92.8148C8.92948 93.5102 9.02982 94.1565 9.23048 94.7538C9.43115 95.3465 9.72748 95.8225 10.1195 96.1818C10.5162 96.5412 11.0062 96.7208 11.5895 96.7208ZM22.2807 97.7148H20.9297L19.0677 94.5018L17.7797 96.0418V97.7148H16.6037V87.2148H17.7797V94.2148L20.7127 90.7148H22.2457L19.8657 93.5498L22.2807 97.7148Z" fill="#718096"/>
<path d="M4.774 147.715V145.069H0.56V143.879L4.48 137.915H5.95V143.893H6.923V145.069H5.95V147.715H4.774ZM1.939 143.879L4.774 143.893L4.753 139.567L1.939 143.879ZM11.5348 147.897C10.9515 147.897 10.4288 147.766 9.9668 147.505C9.5048 147.239 9.10813 146.873 8.7768 146.406C8.44546 145.939 8.19346 145.4 8.0208 144.789C7.84813 144.173 7.7618 143.515 7.7618 142.815C7.7618 142.115 7.84813 141.457 8.0208 140.841C8.19346 140.225 8.44546 139.686 8.7768 139.224C9.10813 138.757 9.5048 138.393 9.9668 138.132C10.4288 137.866 10.9515 137.733 11.5348 137.733C12.1135 137.733 12.6338 137.866 13.0958 138.132C13.5625 138.393 13.9568 138.757 14.2788 139.224C14.6055 139.686 14.8551 140.225 15.0278 140.841C15.2051 141.457 15.2938 142.115 15.2938 142.815C15.2938 143.515 15.2051 144.173 15.0278 144.789C14.8551 145.4 14.6055 145.939 14.2788 146.406C13.9568 146.873 13.5625 147.239 13.0958 147.505C12.6338 147.766 12.1135 147.897 11.5348 147.897ZM11.5348 146.721C12.1181 146.721 12.6058 146.541 12.9978 146.182C13.3945 145.818 13.6908 145.34 13.8868 144.747C14.0828 144.154 14.1808 143.51 14.1808 142.815C14.1808 142.082 14.0781 141.422 13.8728 140.834C13.6721 140.241 13.3735 139.772 12.9768 139.427C12.5848 139.082 12.1041 138.909 11.5348 138.909C11.0868 138.909 10.6948 139.014 10.3588 139.224C10.0275 139.434 9.75213 139.721 9.5328 140.085C9.31346 140.449 9.1478 140.867 9.0358 141.338C8.92846 141.805 8.8748 142.297 8.8748 142.815C8.8748 143.51 8.97513 144.157 9.1758 144.754C9.37646 145.347 9.6728 145.823 10.0648 146.182C10.4615 146.541 10.9515 146.721 11.5348 146.721ZM22.226 147.715H20.875L19.013 144.502L17.725 146.042V147.715H16.549V137.215H17.725V144.215L20.658 140.715H22.191L19.811 143.55L22.226 147.715Z" fill="#718096"/>
<path d="M3.472 197.897C2.87933 197.897 2.352 197.764 1.89 197.498C1.43267 197.227 1.07333 196.868 0.812 196.42C0.550667 195.967 0.42 195.466 0.42 194.915H1.596C1.596 195.246 1.673 195.55 1.827 195.825C1.981 196.096 2.198 196.313 2.478 196.476C2.758 196.639 3.08933 196.721 3.472 196.721C3.80333 196.721 4.11133 196.639 4.396 196.476C4.68533 196.313 4.91867 196.096 5.096 195.825C5.27333 195.55 5.362 195.246 5.362 194.915C5.362 194.5 5.25467 194.154 5.04 193.879C4.83 193.599 4.536 193.391 4.158 193.256C3.78467 193.116 3.35767 193.046 2.877 193.046V192.101C3.53967 192.101 4.06933 191.963 4.466 191.688C4.86733 191.413 5.068 191.007 5.068 190.47C5.068 190.185 4.991 189.924 4.837 189.686C4.683 189.448 4.48 189.259 4.228 189.119C3.98067 188.974 3.71467 188.902 3.43 188.902C3.14067 188.902 2.863 188.974 2.597 189.119C2.331 189.259 2.114 189.448 1.946 189.686C1.778 189.924 1.694 190.185 1.694 190.47H0.518C0.518 190.092 0.595 189.737 0.749 189.406C0.907667 189.075 1.12233 188.783 1.393 188.531C1.66833 188.279 1.97867 188.083 2.324 187.943C2.66933 187.798 3.03333 187.726 3.416 187.726C3.91533 187.726 4.37967 187.85 4.809 188.097C5.23833 188.344 5.58367 188.676 5.845 189.091C6.111 189.506 6.244 189.966 6.244 190.47C6.244 190.923 6.12967 191.34 5.901 191.723C5.67233 192.106 5.362 192.374 4.97 192.528C5.31067 192.645 5.59767 192.827 5.831 193.074C6.06433 193.317 6.23933 193.597 6.356 193.914C6.47733 194.231 6.538 194.565 6.538 194.915C6.538 195.461 6.39567 195.96 6.111 196.413C5.831 196.866 5.45767 197.227 4.991 197.498C4.529 197.764 4.02267 197.897 3.472 197.897ZM11.152 197.897C10.5687 197.897 10.046 197.766 9.58398 197.505C9.12198 197.239 8.72532 196.873 8.39398 196.406C8.06265 195.939 7.81065 195.4 7.63798 194.789C7.46532 194.173 7.37898 193.515 7.37898 192.815C7.37898 192.115 7.46532 191.457 7.63798 190.841C7.81065 190.225 8.06265 189.686 8.39398 189.224C8.72532 188.757 9.12198 188.393 9.58398 188.132C10.046 187.866 10.5687 187.733 11.152 187.733C11.7307 187.733 12.251 187.866 12.713 188.132C13.1797 188.393 13.574 188.757 13.896 189.224C14.2227 189.686 14.4723 190.225 14.645 190.841C14.8223 191.457 14.911 192.115 14.911 192.815C14.911 193.515 14.8223 194.173 14.645 194.789C14.4723 195.4 14.2227 195.939 13.896 196.406C13.574 196.873 13.1797 197.239 12.713 197.505C12.251 197.766 11.7307 197.897 11.152 197.897ZM11.152 196.721C11.7353 196.721 12.223 196.541 12.615 196.182C13.0117 195.818 13.308 195.34 13.504 194.747C13.7 194.154 13.798 193.51 13.798 192.815C13.798 192.082 13.6953 191.422 13.49 190.834C13.2893 190.241 12.9907 189.772 12.594 189.427C12.202 189.082 11.7213 188.909 11.152 188.909C10.704 188.909 10.312 189.014 9.97598 189.224C9.64465 189.434 9.36932 189.721 9.14998 190.085C8.93065 190.449 8.76498 190.867 8.65298 191.338C8.54565 191.805 8.49198 192.297 8.49198 192.815C8.49198 193.51 8.59232 194.157 8.79298 194.754C8.99365 195.347 9.28998 195.823 9.68198 196.182C10.0787 196.541 10.5687 196.721 11.152 196.721ZM21.8432 197.715H20.4922L18.6302 194.502L17.3422 196.042V197.715H16.1662V187.215H17.3422V194.215L20.2752 190.715H21.8082L19.4282 193.55L21.8432 197.715Z" fill="#718096"/>
<path d="M59.093 232.342C58.7663 232.342 58.4467 232.286 58.134 232.174C57.8213 232.067 57.5367 231.903 57.28 231.684L58.029 230.774C58.1643 230.891 58.3207 230.986 58.498 231.061C58.68 231.131 58.8783 231.166 59.093 231.166C59.401 231.166 59.681 231.084 59.933 230.921C60.185 230.758 60.3857 230.543 60.535 230.277C60.689 230.011 60.766 229.726 60.766 229.423V222.36H61.942V229.423C61.942 229.946 61.8137 230.429 61.557 230.872C61.3003 231.311 60.9573 231.665 60.528 231.936C60.0987 232.207 59.6203 232.342 59.093 232.342ZM69.2512 225.16H70.4272V232.16H69.2512L69.2022 230.977C68.9829 231.383 68.6795 231.712 68.2922 231.964C67.9095 232.216 67.4522 232.342 66.9202 232.342C66.4069 232.342 65.9262 232.246 65.4782 232.055C65.0302 231.859 64.6335 231.591 64.2882 231.25C63.9475 230.905 63.6815 230.508 63.4902 230.06C63.2989 229.612 63.2032 229.129 63.2032 228.611C63.2032 228.112 63.2965 227.64 63.4832 227.197C63.6699 226.754 63.9289 226.366 64.2602 226.035C64.5962 225.699 64.9835 225.438 65.4222 225.251C65.8609 225.06 66.3322 224.964 66.8362 224.964C67.3869 224.964 67.8699 225.095 68.2852 225.356C68.7005 225.613 69.0365 225.946 69.2932 226.357L69.2512 225.16ZM66.8992 231.201C67.3612 231.201 67.7602 231.089 68.0962 230.865C68.4369 230.636 68.6982 230.328 68.8802 229.941C69.0669 229.554 69.1602 229.127 69.1602 228.66C69.1602 228.184 69.0669 227.755 68.8802 227.372C68.6935 226.985 68.4299 226.679 68.0892 226.455C67.7532 226.226 67.3565 226.112 66.8992 226.112C66.4372 226.112 66.0172 226.226 65.6392 226.455C65.2612 226.684 64.9602 226.992 64.7362 227.379C64.5169 227.762 64.4072 228.189 64.4072 228.66C64.4072 229.131 64.5215 229.561 64.7502 229.948C64.9789 230.331 65.2822 230.636 65.6602 230.865C66.0382 231.089 66.4512 231.201 66.8992 231.201ZM78.0143 227.806V232.16H76.8383V228.065C76.8383 227.71 76.752 227.388 76.5793 227.099C76.4067 226.81 76.1757 226.581 75.8863 226.413C75.597 226.24 75.275 226.154 74.9203 226.154C74.5703 226.154 74.2483 226.24 73.9543 226.413C73.665 226.581 73.434 226.81 73.2613 227.099C73.0887 227.388 73.0023 227.71 73.0023 228.065V232.16H71.8263V225.16H73.0023V226.035C73.2497 225.708 73.5623 225.449 73.9403 225.258C74.3183 225.062 74.729 224.964 75.1723 224.964C75.695 224.964 76.171 225.092 76.6003 225.349C77.0343 225.601 77.3773 225.942 77.6293 226.371C77.886 226.8 78.0143 227.279 78.0143 227.806Z" fill="#718096"/>
<path d="M150.34 232.16V222.36H156.087V223.536H151.516V226.322H155.415V227.498H151.516V232.16H150.34ZM159.504 232.342C158.86 232.342 158.272 232.176 157.74 231.845C157.213 231.514 156.79 231.07 156.473 230.515C156.16 229.955 156.004 229.337 156.004 228.66C156.004 228.147 156.095 227.668 156.277 227.225C156.459 226.777 156.709 226.385 157.026 226.049C157.348 225.708 157.721 225.442 158.146 225.251C158.571 225.06 159.023 224.964 159.504 224.964C160.031 224.964 160.514 225.071 160.953 225.286C161.396 225.496 161.774 225.79 162.087 226.168C162.404 226.546 162.64 226.985 162.794 227.484C162.953 227.983 163.011 228.518 162.969 229.087H157.257C157.313 229.484 157.444 229.838 157.649 230.151C157.854 230.459 158.116 230.704 158.433 230.886C158.755 231.068 159.112 231.161 159.504 231.166C159.924 231.166 160.304 231.059 160.645 230.844C160.986 230.625 161.261 230.326 161.471 229.948L162.668 230.228C162.388 230.849 161.966 231.357 161.401 231.754C160.836 232.146 160.204 232.342 159.504 232.342ZM157.222 228.163H161.786C161.749 227.771 161.623 227.414 161.408 227.092C161.193 226.765 160.92 226.504 160.589 226.308C160.258 226.112 159.896 226.014 159.504 226.014C159.112 226.014 158.753 226.11 158.426 226.301C158.099 226.492 157.829 226.751 157.614 227.078C157.404 227.4 157.273 227.762 157.222 228.163ZM167.622 224.964C168.304 224.964 168.922 225.13 169.477 225.461C170.037 225.792 170.483 226.238 170.814 226.798C171.146 227.353 171.311 227.972 171.311 228.653C171.311 229.162 171.216 229.64 171.024 230.088C170.833 230.531 170.567 230.923 170.226 231.264C169.89 231.6 169.498 231.864 169.05 232.055C168.607 232.246 168.131 232.342 167.622 232.342C167.081 232.342 166.61 232.216 166.208 231.964C165.812 231.707 165.494 231.374 165.256 230.963V232.16H164.08V221.66H165.256V226.343C165.494 225.932 165.812 225.601 166.208 225.349C166.61 225.092 167.081 224.964 167.622 224.964ZM167.608 231.194C168.07 231.194 168.49 231.08 168.868 230.851C169.246 230.622 169.547 230.317 169.771 229.934C169.995 229.547 170.107 229.12 170.107 228.653C170.107 228.177 169.993 227.748 169.764 227.365C169.536 226.978 169.232 226.672 168.854 226.448C168.476 226.219 168.061 226.105 167.608 226.105C167.151 226.105 166.752 226.219 166.411 226.448C166.075 226.677 165.814 226.985 165.627 227.372C165.445 227.759 165.354 228.186 165.354 228.653C165.354 229.124 165.445 229.554 165.627 229.941C165.814 230.324 166.078 230.629 166.418 230.858C166.759 231.082 167.156 231.194 167.608 231.194Z" fill="#718096"/>
<path d="M243.84 232.16L245.737 222.36H246.64L249.286 229.318L251.925 222.36H252.828L254.732 232.16H253.535L252.156 225.048L249.671 231.628H248.894L246.409 225.048L245.037 232.16H243.84ZM261.431 225.16H262.607V232.16H261.431L261.382 230.977C261.163 231.383 260.859 231.712 260.472 231.964C260.089 232.216 259.632 232.342 259.1 232.342C258.587 232.342 258.106 232.246 257.658 232.055C257.21 231.859 256.813 231.591 256.468 231.25C256.127 230.905 255.861 230.508 255.67 230.06C255.479 229.612 255.383 229.129 255.383 228.611C255.383 228.112 255.476 227.64 255.663 227.197C255.85 226.754 256.109 226.366 256.44 226.035C256.776 225.699 257.163 225.438 257.602 225.251C258.041 225.06 258.512 224.964 259.016 224.964C259.567 224.964 260.05 225.095 260.465 225.356C260.88 225.613 261.216 225.946 261.473 226.357L261.431 225.16ZM259.079 231.201C259.541 231.201 259.94 231.089 260.276 230.865C260.617 230.636 260.878 230.328 261.06 229.941C261.247 229.554 261.34 229.127 261.34 228.66C261.34 228.184 261.247 227.755 261.06 227.372C260.873 226.985 260.61 226.679 260.269 226.455C259.933 226.226 259.536 226.112 259.079 226.112C258.617 226.112 258.197 226.226 257.819 226.455C257.441 226.684 257.14 226.992 256.916 227.379C256.697 227.762 256.587 228.189 256.587 228.66C256.587 229.131 256.701 229.561 256.93 229.948C257.159 230.331 257.462 230.636 257.84 230.865C258.218 231.089 258.631 231.201 259.079 231.201ZM264.006 232.16V225.16H265.182V226.035C265.429 225.708 265.742 225.449 266.12 225.258C266.498 225.062 266.909 224.964 267.352 224.964C267.623 224.964 267.884 224.999 268.136 225.069L267.66 226.245C267.469 226.184 267.282 226.154 267.1 226.154C266.75 226.154 266.428 226.24 266.134 226.413C265.845 226.581 265.614 226.81 265.441 227.099C265.268 227.388 265.182 227.71 265.182 228.065V232.16H264.006Z" fill="#718096"/>
<path d="M343.623 222.36H345.044L348.607 232.16H347.361L346.633 230.158H342.034L341.313 232.16H340.06L343.623 222.36ZM342.468 228.982H346.199L344.33 223.865L342.468 228.982ZM350.909 235.66H349.733V225.16H350.909V226.357C351.147 225.946 351.464 225.615 351.861 225.363C352.257 225.106 352.729 224.978 353.275 224.978C353.783 224.978 354.259 225.074 354.703 225.265C355.151 225.456 355.543 225.722 355.879 226.063C356.215 226.399 356.478 226.789 356.67 227.232C356.861 227.675 356.957 228.151 356.957 228.66C356.957 229.169 356.861 229.647 356.67 230.095C356.478 230.543 356.215 230.937 355.879 231.278C355.543 231.614 355.151 231.878 354.703 232.069C354.259 232.26 353.783 232.356 353.275 232.356C352.729 232.356 352.257 232.23 351.861 231.978C351.464 231.721 351.147 231.388 350.909 230.977V235.66ZM353.261 226.119C352.808 226.119 352.411 226.233 352.071 226.462C351.73 226.691 351.466 226.996 351.28 227.379C351.098 227.762 351.007 228.189 351.007 228.66C351.007 229.127 351.098 229.554 351.28 229.941C351.466 230.328 351.728 230.636 352.064 230.865C352.404 231.094 352.803 231.208 353.261 231.208C353.713 231.208 354.129 231.096 354.507 230.872C354.885 230.643 355.188 230.338 355.417 229.955C355.645 229.568 355.76 229.136 355.76 228.66C355.76 228.193 355.648 227.769 355.424 227.386C355.2 226.999 354.899 226.691 354.521 226.462C354.143 226.233 353.723 226.119 353.261 226.119ZM358.127 232.16V225.16H359.303V226.035C359.55 225.708 359.863 225.449 360.241 225.258C360.619 225.062 361.03 224.964 361.473 224.964C361.744 224.964 362.005 224.999 362.257 225.069L361.781 226.245C361.59 226.184 361.403 226.154 361.221 226.154C360.871 226.154 360.549 226.24 360.255 226.413C359.966 226.581 359.735 226.81 359.562 227.099C359.389 227.388 359.303 227.71 359.303 228.065V232.16H358.127Z" fill="#718096"/>
<path d="M433.84 232.16L435.737 222.36H436.64L439.286 229.318L441.925 222.36H442.828L444.732 232.16H443.535L442.156 225.048L439.671 231.628H438.894L436.409 225.048L435.037 232.16H433.84ZM451.431 225.16H452.607V232.16H451.431L451.382 230.977C451.163 231.383 450.859 231.712 450.472 231.964C450.089 232.216 449.632 232.342 449.1 232.342C448.587 232.342 448.106 232.246 447.658 232.055C447.21 231.859 446.813 231.591 446.468 231.25C446.127 230.905 445.861 230.508 445.67 230.06C445.479 229.612 445.383 229.129 445.383 228.611C445.383 228.112 445.476 227.64 445.663 227.197C445.85 226.754 446.109 226.366 446.44 226.035C446.776 225.699 447.163 225.438 447.602 225.251C448.041 225.06 448.512 224.964 449.016 224.964C449.567 224.964 450.05 225.095 450.465 225.356C450.88 225.613 451.216 225.946 451.473 226.357L451.431 225.16ZM449.079 231.201C449.541 231.201 449.94 231.089 450.276 230.865C450.617 230.636 450.878 230.328 451.06 229.941C451.247 229.554 451.34 229.127 451.34 228.66C451.34 228.184 451.247 227.755 451.06 227.372C450.873 226.985 450.61 226.679 450.269 226.455C449.933 226.226 449.536 226.112 449.079 226.112C448.617 226.112 448.197 226.226 447.819 226.455C447.441 226.684 447.14 226.992 446.916 227.379C446.697 227.762 446.587 228.189 446.587 228.66C446.587 229.131 446.701 229.561 446.93 229.948C447.159 230.331 447.462 230.636 447.84 230.865C448.218 231.089 448.631 231.201 449.079 231.201ZM458.582 225.16H459.828L455.999 235.66H454.753L456.02 232.16L453.507 225.16H454.795L456.608 230.543L458.582 225.16Z" fill="#718096"/>
<path d="M533.593 232.342C533.266 232.342 532.947 232.286 532.634 232.174C532.321 232.067 532.037 231.903 531.78 231.684L532.529 230.774C532.664 230.891 532.821 230.986 532.998 231.061C533.18 231.131 533.378 231.166 533.593 231.166C533.901 231.166 534.181 231.084 534.433 230.921C534.685 230.758 534.886 230.543 535.035 230.277C535.189 230.011 535.266 229.726 535.266 229.423V222.36H536.442V229.423C536.442 229.946 536.314 230.429 536.057 230.872C535.8 231.311 535.457 231.665 535.028 231.936C534.599 232.207 534.12 232.342 533.593 232.342ZM537.843 229.5V225.16H539.019V229.241C539.019 229.596 539.106 229.918 539.278 230.207C539.451 230.496 539.682 230.727 539.971 230.9C540.265 231.068 540.587 231.152 540.937 231.152C541.292 231.152 541.612 231.068 541.896 230.9C542.186 230.727 542.417 230.496 542.589 230.207C542.762 229.918 542.848 229.596 542.848 229.241V225.16H544.024L544.031 232.16H542.855L542.848 231.271C542.601 231.598 542.288 231.859 541.91 232.055C541.532 232.246 541.124 232.342 540.685 232.342C540.163 232.342 539.684 232.216 539.25 231.964C538.821 231.707 538.478 231.364 538.221 230.935C537.969 230.506 537.843 230.027 537.843 229.5ZM551.626 227.806V232.16H550.45V228.065C550.45 227.71 550.363 227.388 550.191 227.099C550.018 226.81 549.787 226.581 549.498 226.413C549.208 226.24 548.886 226.154 548.532 226.154C548.182 226.154 547.86 226.24 547.566 226.413C547.276 226.581 547.045 226.81 546.873 227.099C546.7 227.388 546.614 227.71 546.614 228.065V232.16H545.438V225.16H546.614V226.035C546.861 225.708 547.174 225.449 547.552 225.258C547.93 225.062 548.34 224.964 548.784 224.964C549.306 224.964 549.782 225.092 550.212 225.349C550.646 225.601 550.989 225.942 551.241 226.371C551.497 226.8 551.626 227.279 551.626 227.806Z" fill="#718096"/>
<path d="M625.093 232.342C624.766 232.342 624.447 232.286 624.134 232.174C623.821 232.067 623.537 231.903 623.28 231.684L624.029 230.774C624.164 230.891 624.321 230.986 624.498 231.061C624.68 231.131 624.878 231.166 625.093 231.166C625.401 231.166 625.681 231.084 625.933 230.921C626.185 230.758 626.386 230.543 626.535 230.277C626.689 230.011 626.766 229.726 626.766 229.423V222.36H627.942V229.423C627.942 229.946 627.814 230.429 627.557 230.872C627.3 231.311 626.957 231.665 626.528 231.936C626.099 232.207 625.62 232.342 625.093 232.342ZM629.343 229.5V225.16H630.519V229.241C630.519 229.596 630.606 229.918 630.778 230.207C630.951 230.496 631.182 230.727 631.471 230.9C631.765 231.068 632.087 231.152 632.437 231.152C632.792 231.152 633.112 231.068 633.396 230.9C633.686 230.727 633.917 230.496 634.089 230.207C634.262 229.918 634.348 229.596 634.348 229.241V225.16H635.524L635.531 232.16H634.355L634.348 231.271C634.101 231.598 633.788 231.859 633.41 232.055C633.032 232.246 632.624 232.342 632.185 232.342C631.663 232.342 631.184 232.216 630.75 231.964C630.321 231.707 629.978 231.364 629.721 230.935C629.469 230.506 629.343 230.027 629.343 229.5ZM637.02 232.16V221.66H638.196V232.16H637.02Z" fill="#718096"/>
<path d="M50.2927 24.4897C50.2927 22.2806 52.0836 20.4897 54.2927 20.4897H61.5481C63.0313 20.4897 64.3927 21.3105 65.0853 22.622L66.8203 25.9079C69.0721 30.1725 75.1801 30.1725 77.4318 25.9079L79.1668 22.622C79.8594 21.3105 81.2208 20.4897 82.704 20.4897H90.2927C92.5019 20.4897 94.2927 22.2806 94.2927 24.4897V190.49C94.2927 192.699 92.5019 194.49 90.2927 194.49H54.2927C52.0836 194.49 50.2927 192.699 50.2927 190.49V24.4897Z" fill="#EAFBF7"/>
<line x1="72.5" y1="34.498" x2="72.5" y2="193.801" stroke="white" stroke-linecap="round"/>
<path d="M143.293 24.4897C143.293 22.2806 145.084 20.4897 147.293 20.4897H154.548C156.031 20.4897 157.393 21.3105 158.085 22.622L159.82 25.9079C162.072 30.1725 168.18 30.1725 170.432 25.9079L172.167 22.622C172.859 21.3105 174.221 20.4897 175.704 20.4897H183.293C185.502 20.4897 187.293 22.2806 187.293 24.4897V190.49C187.293 192.699 185.502 194.49 183.293 194.49H147.293C145.084 194.49 143.293 192.699 143.293 190.49V24.4897Z" fill="#EAFBF7"/>
<line x1="165.5" y1="34.498" x2="165.5" y2="193.801" stroke="white" stroke-linecap="round"/>
<path d="M236.293 24.4897C236.293 22.2806 238.084 20.4897 240.293 20.4897H247.548C249.031 20.4897 250.393 21.3105 251.085 22.622L252.82 25.9079C255.072 30.1725 261.18 30.1725 263.432 25.9079L265.167 22.622C265.859 21.3105 267.221 20.4897 268.704 20.4897H276.293C278.502 20.4897 280.293 22.2806 280.293 24.4897V190.49C280.293 192.699 278.502 194.49 276.293 194.49H240.293C238.084 194.49 236.293 192.699 236.293 190.49V24.4897Z" fill="#EAFBF7"/>
<line x1="258.5" y1="34.498" x2="258.5" y2="193.801" stroke="white" stroke-linecap="round"/>
<path d="M329.293 24.4897C329.293 22.2806 331.084 20.4897 333.293 20.4897H340.548C342.031 20.4897 343.393 21.3105 344.085 22.622L345.82 25.9079C348.072 30.1725 354.18 30.1725 356.432 25.9079L358.167 22.622C358.859 21.3105 360.221 20.4897 361.704 20.4897H369.293C371.502 20.4897 373.293 22.2806 373.293 24.4897V190.49C373.293 192.699 371.502 194.49 369.293 194.49H333.293C331.084 194.49 329.293 192.699 329.293 190.49V24.4897Z" fill="url(#paint0_linear_5260_91)"/>
<line x1="351.5" y1="34.498" x2="351.5" y2="193.801" stroke="white" stroke-linecap="round"/>
<path d="M422.293 24.4897C422.293 22.2806 424.084 20.4897 426.293 20.4897H433.548C435.031 20.4897 436.393 21.3105 437.085 22.622L438.82 25.9079C441.072 30.1725 447.18 30.1725 449.432 25.9079L451.167 22.622C451.859 21.3105 453.221 20.4897 454.704 20.4897H462.293C464.502 20.4897 466.293 22.2806 466.293 24.4897V190.49C466.293 192.699 464.502 194.49 462.293 194.49H426.293C424.084 194.49 422.293 192.699 422.293 190.49V24.4897Z" fill="#EAFBF7"/>
<line x1="444.5" y1="34.498" x2="444.5" y2="193.801" stroke="white" stroke-linecap="round"/>
<path d="M515.293 24.4897C515.293 22.2806 517.084 20.4897 519.293 20.4897H526.548C528.031 20.4897 529.393 21.3105 530.085 22.622L531.82 25.9079C534.072 30.1725 540.18 30.1725 542.432 25.9079L544.167 22.622C544.859 21.3105 546.221 20.4897 547.704 20.4897H555.293C557.502 20.4897 559.293 22.2806 559.293 24.4897V190.49C559.293 192.699 557.502 194.49 555.293 194.49H519.293C517.084 194.49 515.293 192.699 515.293 190.49V24.4897Z" fill="#EAFBF7"/>
<line x1="537.5" y1="34.498" x2="537.5" y2="193.801" stroke="white" stroke-linecap="round"/>
<path d="M608.293 24.4897C608.293 22.2806 610.084 20.4897 612.293 20.4897H619.548C621.032 20.4897 622.393 21.3105 623.086 22.622L624.821 25.9079C627.072 30.1725 633.18 30.1725 635.432 25.9079L637.167 22.622C637.86 21.3105 639.221 20.4897 640.704 20.4897H648.293C650.502 20.4897 652.293 22.2806 652.293 24.4897V190.49C652.293 192.699 650.502 194.49 648.293 194.49H612.293C610.084 194.49 608.293 192.699 608.293 190.49V24.4897Z" fill="#EAFBF7"/>
<line x1="630.5" y1="34.498" x2="630.5" y2="193.801" stroke="white" stroke-linecap="round"/>
<path d="M652 147.47L632.59 154.424C627.187 156.36 621.341 156.705 615.747 155.418L601.646 152.175C598.746 151.508 595.962 150.414 593.385 148.927L570.231 135.576L567.089 134.027C553.184 127.17 536.346 132.037 528.243 145.254L519.279 159.879C516.389 164.593 512.253 168.417 507.327 170.928L499.185 175.079C492.035 178.724 483.581 178.764 476.397 175.186V175.186C466.676 170.346 454.95 172.243 447.251 179.902L442.568 184.56C436.548 190.548 428.227 193.633 419.758 193.015V193.015C410.705 192.354 402.469 187.537 397.455 179.972L385.891 162.526C381.108 155.309 373.44 150.511 364.858 149.365L361.081 148.86C354.346 147.96 348.116 144.8 343.41 139.898L334.308 130.415C327.61 123.436 317.957 120.116 308.383 121.496L304.248 122.093C298.821 122.875 293.282 122.155 288.235 120.011L283.106 117.832C274.196 114.045 264.006 114.792 255.743 119.837L255.079 120.242C246.434 125.519 235.71 126.079 226.563 121.729L222.239 119.672C217.017 117.189 211.116 116.514 205.467 117.755V117.755C194.213 120.228 182.671 115.01 177.093 104.928L170.849 93.6445C164.318 81.8411 150.081 76.6649 137.494 81.518V81.518C133.725 82.9711 129.679 83.5606 125.652 83.243L122.767 83.0155C111.672 82.1403 101.004 87.4797 95.054 96.8859L82.4069 116.881C78.9249 122.386 73.7458 126.608 67.6521 128.909L49.9999 135.576" stroke="#B8E716" stroke-width="3" stroke-linecap="round" stroke-linejoin="round"/>
<path d="M50 117.083L77.0417 108.819L99.2099 100.876C102.812 99.5853 106.71 99.3552 110.439 100.213L128.853 104.449C130.786 104.893 132.642 105.623 134.361 106.614L158.811 120.712L170.134 126.296C179.403 130.867 190.629 127.623 196.031 118.811L211.236 94.0063C213.162 90.8636 215.92 88.3145 219.204 86.6403L232.246 79.9917C237.893 77.1129 244.57 77.0814 250.244 79.9066L264.869 87.1889C267.529 88.5133 270.45 89.2284 273.421 89.2823L298.055 89.7292C300.66 89.7764 303.249 89.3143 305.676 88.3689L339.137 75.3371C346.539 72.4541 354.946 74.2256 360.556 79.8504L363 82.3007L376.5 102.301L387.648 118.094C388.215 118.897 388.841 119.658 389.52 120.369L405.999 137.635C411.37 143.262 420.182 143.763 426.156 138.782V138.782C430.413 135.232 436.299 134.363 441.401 136.53L450.667 140.468C456.608 142.992 463.401 142.494 468.91 139.131L478.581 133.227C484.344 129.709 491.494 129.336 497.592 132.236L508.671 137.505C512.683 139.413 517.215 139.931 521.553 138.977L527.976 137.566C536.619 135.667 545.483 139.674 549.767 147.418L561.151 167.991C565.986 176.73 576.527 180.562 585.846 176.969L593.034 174.197C595.824 173.121 598.82 172.685 601.802 172.92L612.288 173.747C619.685 174.331 626.797 170.771 630.763 164.5L652 130.925" stroke="#DEE33E" stroke-width="3" stroke-linecap="round" stroke-linejoin="round"/>
<g filter="url(#filter0_d_5260_91)">
<ellipse cx="351" cy="75.8535" rx="6" ry="6.17578" fill="white"/>
<path d="M356 75.8535C356 78.7394 353.734 81.0293 351 81.0293C348.266 81.0293 346 78.7394 346 75.8535C346 72.9676 348.266 70.6777 351 70.6777C353.734 70.6777 356 72.9676 356 75.8535Z" stroke="#DEE33E" stroke-width="2"/>
</g>
<g filter="url(#filter1_d_5260_91)">
<rect x="391" y="36.502" width="88" height="54" rx="8" fill="white" shape-rendering="crispEdges"/>
<path d="M400.161 60.502V58.794C400.399 58.794 400.641 58.7636 400.889 58.703C401.136 58.6423 401.355 58.556 401.547 58.444C401.743 58.3273 401.88 58.1873 401.96 58.024C402.044 57.8606 402.041 57.6786 401.953 57.478C401.906 57.3006 401.824 57.1326 401.708 56.974C401.591 56.8106 401.458 56.6496 401.309 56.491C401.159 56.3276 401.008 56.162 400.854 55.994C400.7 55.8213 400.557 55.6416 400.427 55.455C400.296 55.2636 400.191 55.0606 400.112 54.846C400.032 54.6266 399.993 54.391 399.993 54.139C399.993 53.6396 400.086 53.173 400.273 52.739C400.464 52.305 400.725 51.9223 401.057 51.591C401.393 51.255 401.778 50.9936 402.212 50.807C402.646 50.6156 403.112 50.52 403.612 50.52C404.111 50.52 404.58 50.6156 405.019 50.807C405.457 50.9936 405.842 51.2526 406.174 51.584C406.51 51.9153 406.771 52.3003 406.958 52.739C407.144 53.173 407.238 53.6396 407.238 54.139H405.53C405.53 53.789 405.443 53.4693 405.271 53.18C405.098 52.8906 404.865 52.6596 404.571 52.487C404.281 52.3143 403.962 52.228 403.612 52.228C403.262 52.228 402.942 52.3143 402.653 52.487C402.363 52.6596 402.132 52.8906 401.96 53.18C401.787 53.4693 401.701 53.789 401.701 54.139C401.701 54.4283 401.75 54.6803 401.848 54.895C401.946 55.1096 402.072 55.3056 402.226 55.483C402.38 55.6603 402.543 55.833 402.716 56.001C402.893 56.1643 403.059 56.3393 403.213 56.526C403.367 56.7126 403.493 56.925 403.591 57.163C403.689 57.3963 403.738 57.674 403.738 57.996C403.738 58.108 403.719 58.2176 403.682 58.325C403.644 58.4276 403.6 58.521 403.549 58.605C403.497 58.689 403.444 58.752 403.388 58.794H407.098V60.502H400.161ZM400.161 57.38V56.211H405.551V57.38H400.161ZM411.65 60.684C411.02 60.684 410.45 60.5323 409.942 60.229C409.433 59.921 409.029 59.5126 408.731 59.004C408.437 58.4953 408.29 57.9376 408.29 57.331H409.998C409.998 57.6343 410.072 57.912 410.222 58.164C410.371 58.4113 410.569 58.6096 410.817 58.759C411.069 58.9036 411.346 58.976 411.65 58.976C411.953 58.976 412.228 58.9036 412.476 58.759C412.723 58.6096 412.921 58.4113 413.071 58.164C413.22 57.912 413.295 57.6343 413.295 57.331C413.295 57.0276 413.229 56.75 413.099 56.498C412.973 56.2413 412.765 56.0383 412.476 55.889C412.191 55.735 411.813 55.658 411.342 55.658H408.822L409.858 50.702H414.674V52.41H411.244L410.929 53.95L411.622 53.957C412.284 53.9803 412.87 54.1413 413.379 54.44C413.887 54.7386 414.284 55.14 414.569 55.644C414.858 56.1433 415.003 56.7056 415.003 57.331C415.003 57.7883 414.916 58.22 414.744 58.626C414.571 59.032 414.331 59.389 414.023 59.697C413.715 60.005 413.358 60.2476 412.952 60.425C412.55 60.5976 412.116 60.684 411.65 60.684ZM416.399 60.502V58.976C416.702 58.7473 417.062 58.465 417.477 58.129C417.892 57.7883 418.319 57.422 418.758 57.03C419.197 56.6333 419.603 56.2366 419.976 55.84C420.349 55.4433 420.653 55.0653 420.886 54.706C421.124 54.3466 421.243 54.0386 421.243 53.782C421.243 53.4973 421.173 53.2383 421.033 53.005C420.893 52.767 420.706 52.578 420.473 52.438C420.244 52.298 419.988 52.228 419.703 52.228C419.418 52.228 419.159 52.298 418.926 52.438C418.693 52.578 418.506 52.767 418.366 53.005C418.226 53.2383 418.156 53.4973 418.156 53.782H416.448C416.448 53.166 416.597 52.613 416.896 52.123C417.195 51.6283 417.589 51.2386 418.079 50.954C418.574 50.6646 419.115 50.52 419.703 50.52C420.3 50.52 420.844 50.667 421.334 50.961C421.824 51.2503 422.216 51.6423 422.51 52.137C422.804 52.6316 422.951 53.18 422.951 53.782C422.951 54.0993 422.893 54.419 422.776 54.741C422.659 55.063 422.496 55.3873 422.286 55.714C422.076 56.0406 421.829 56.372 421.544 56.708C421.259 57.0393 420.944 57.38 420.599 57.73C420.258 58.0753 419.899 58.43 419.521 58.794H423V60.502H416.399ZM424.397 61.286L424.831 58.92H426.539L425.538 61.286H424.397ZM431.172 60.684C430.547 60.684 429.973 60.5276 429.45 60.215C428.927 59.9023 428.51 59.4846 428.197 58.962C427.884 58.4393 427.728 57.8606 427.728 57.226C427.728 56.8993 427.765 56.596 427.84 56.316C427.919 56.036 428.041 55.7536 428.204 55.469L430.948 50.702H432.929L431.088 53.887C431.466 53.859 431.83 53.8916 432.18 53.985C432.53 54.0783 432.854 54.2253 433.153 54.426C433.452 54.6266 433.713 54.8693 433.937 55.154C434.161 55.4386 434.334 55.756 434.455 56.106C434.581 56.456 434.644 56.8293 434.644 57.226C434.644 57.702 434.553 58.1476 434.371 58.563C434.194 58.9783 433.946 59.347 433.629 59.669C433.312 59.9863 432.943 60.236 432.523 60.418C432.103 60.5953 431.653 60.684 431.172 60.684ZM431.172 58.976C431.513 58.976 431.816 58.8943 432.082 58.731C432.348 58.563 432.556 58.346 432.705 58.08C432.859 57.814 432.936 57.5316 432.936 57.233C432.936 56.911 432.859 56.617 432.705 56.351C432.551 56.085 432.341 55.8726 432.075 55.714C431.814 55.5553 431.517 55.476 431.186 55.476C430.845 55.476 430.542 55.56 430.276 55.728C430.015 55.8913 429.809 56.106 429.66 56.372C429.511 56.638 429.436 56.925 429.436 57.233C429.436 57.5643 429.518 57.8606 429.681 58.122C429.844 58.3833 430.057 58.591 430.318 58.745C430.584 58.899 430.869 58.976 431.172 58.976ZM438.912 60.684C438.282 60.684 437.712 60.5323 437.204 60.229C436.695 59.921 436.291 59.5126 435.993 59.004C435.699 58.4953 435.552 57.9376 435.552 57.331H437.26C437.26 57.6343 437.334 57.912 437.484 58.164C437.633 58.4113 437.831 58.6096 438.079 58.759C438.331 58.9036 438.608 58.976 438.912 58.976C439.215 58.976 439.49 58.9036 439.738 58.759C439.985 58.6096 440.183 58.4113 440.333 58.164C440.482 57.912 440.557 57.6343 440.557 57.331C440.557 57.0276 440.491 56.75 440.361 56.498C440.235 56.2413 440.027 56.0383 439.738 55.889C439.453 55.735 439.075 55.658 438.604 55.658H436.084L437.12 50.702H441.936V52.41H438.506L438.191 53.95L438.884 53.957C439.546 53.9803 440.132 54.1413 440.641 54.44C441.149 54.7386 441.546 55.14 441.831 55.644C442.12 56.1433 442.265 56.7056 442.265 57.331C442.265 57.7883 442.178 58.22 442.006 58.626C441.833 59.032 441.593 59.389 441.285 59.697C440.977 60.005 440.62 60.2476 440.214 60.425C439.812 60.5976 439.378 60.684 438.912 60.684ZM443.871 60.502L448.54 52.41H443.381V50.702H450.521V52.41L445.838 60.502H443.871ZM452.233 60.684C451.99 60.684 451.783 60.6 451.61 60.432C451.442 60.2593 451.358 60.0493 451.358 59.802C451.358 59.564 451.442 59.3586 451.61 59.186C451.783 59.0133 451.99 58.927 452.233 58.927C452.476 58.927 452.683 59.0133 452.856 59.186C453.029 59.3586 453.115 59.564 453.115 59.802C453.115 60.0493 453.029 60.2593 452.856 60.432C452.683 60.6 452.476 60.684 452.233 60.684ZM458.191 60.684C457.622 60.684 457.104 60.5533 456.637 60.292C456.17 60.026 455.767 59.6596 455.426 59.193C455.09 58.7263 454.831 58.1873 454.649 57.576C454.467 56.96 454.376 56.302 454.376 55.602C454.376 54.902 454.467 54.2463 454.649 53.635C454.831 53.019 455.09 52.4776 455.426 52.011C455.767 51.5443 456.17 51.1803 456.637 50.919C457.104 50.653 457.622 50.52 458.191 50.52C458.76 50.52 459.278 50.653 459.745 50.919C460.212 51.1803 460.611 51.5443 460.942 52.011C461.278 52.4776 461.537 53.019 461.719 53.635C461.906 54.2463 461.999 54.902 461.999 55.602C461.999 56.302 461.906 56.96 461.719 57.576C461.537 58.1873 461.278 58.7263 460.942 59.193C460.611 59.6596 460.212 60.026 459.745 60.292C459.278 60.5533 458.76 60.684 458.191 60.684ZM458.191 58.976C458.69 58.976 459.103 58.8173 459.43 58.5C459.757 58.1826 459.999 57.7673 460.158 57.254C460.317 56.7406 460.396 56.19 460.396 55.602C460.396 54.9813 460.312 54.4166 460.144 53.908C459.976 53.3946 459.729 52.9863 459.402 52.683C459.075 52.3796 458.672 52.228 458.191 52.228C457.813 52.228 457.484 52.3213 457.204 52.508C456.929 52.69 456.7 52.9396 456.518 53.257C456.336 53.5743 456.201 53.936 456.112 54.342C456.023 54.7433 455.979 55.1633 455.979 55.602C455.979 56.1853 456.058 56.736 456.217 57.254C456.38 57.7673 456.625 58.1826 456.952 58.5C457.283 58.8173 457.696 58.976 458.191 58.976ZM466.339 60.684C465.77 60.684 465.252 60.5533 464.785 60.292C464.319 60.026 463.915 59.6596 463.574 59.193C463.238 58.7263 462.979 58.1873 462.797 57.576C462.615 56.96 462.524 56.302 462.524 55.602C462.524 54.902 462.615 54.2463 462.797 53.635C462.979 53.019 463.238 52.4776 463.574 52.011C463.915 51.5443 464.319 51.1803 464.785 50.919C465.252 50.653 465.77 50.52 466.339 50.52C466.909 50.52 467.427 50.653 467.893 50.919C468.36 51.1803 468.759 51.5443 469.09 52.011C469.426 52.4776 469.685 53.019 469.867 53.635C470.054 54.2463 470.147 54.902 470.147 55.602C470.147 56.302 470.054 56.96 469.867 57.576C469.685 58.1873 469.426 58.7263 469.09 59.193C468.759 59.6596 468.36 60.026 467.893 60.292C467.427 60.5533 466.909 60.684 466.339 60.684ZM466.339 58.976C466.839 58.976 467.252 58.8173 467.578 58.5C467.905 58.1826 468.148 57.7673 468.306 57.254C468.465 56.7406 468.544 56.19 468.544 55.602C468.544 54.9813 468.46 54.4166 468.292 53.908C468.124 53.3946 467.877 52.9863 467.55 52.683C467.224 52.3796 466.82 52.228 466.339 52.228C465.961 52.228 465.632 52.3213 465.352 52.508C465.077 52.69 464.848 52.9396 464.666 53.257C464.484 53.5743 464.349 53.936 464.26 54.342C464.172 54.7433 464.127 55.1633 464.127 55.602C464.127 56.1853 464.207 56.736 464.365 57.254C464.529 57.7673 464.774 58.1826 465.1 58.5C465.432 58.8173 465.845 58.976 466.339 58.976Z" fill="#9FA324"/>
<path d="M415.722 78.502V71.502H416.632L420.127 76.982V71.502H420.967V78.502H420.062L416.562 73.022V78.502H415.722ZM424.319 78.632C423.859 78.632 423.439 78.5136 423.059 78.277C422.682 78.0403 422.38 77.7236 422.154 77.327C421.93 76.927 421.819 76.4853 421.819 76.002C421.819 75.6353 421.884 75.2936 422.014 74.977C422.144 74.657 422.322 74.377 422.549 74.137C422.779 73.8936 423.045 73.7036 423.349 73.567C423.652 73.4303 423.975 73.362 424.319 73.362C424.695 73.362 425.04 73.4386 425.354 73.592C425.67 73.742 425.94 73.952 426.164 74.222C426.39 74.492 426.559 74.8053 426.669 75.162C426.782 75.5186 426.824 75.9003 426.794 76.307H422.714C422.754 76.5903 422.847 76.8436 422.994 77.067C423.14 77.287 423.327 77.462 423.554 77.592C423.784 77.722 424.039 77.7886 424.319 77.792C424.619 77.792 424.89 77.7153 425.134 77.562C425.377 77.4053 425.574 77.192 425.724 76.922L426.579 77.122C426.379 77.5653 426.077 77.9286 425.674 78.212C425.27 78.492 424.819 78.632 424.319 78.632ZM422.689 75.647H425.949C425.922 75.367 425.832 75.112 425.679 74.882C425.525 74.6486 425.33 74.462 425.094 74.322C424.857 74.182 424.599 74.112 424.319 74.112C424.039 74.112 423.782 74.1803 423.549 74.317C423.315 74.4536 423.122 74.6386 422.969 74.872C422.819 75.102 422.725 75.3603 422.689 75.647ZM430.168 74.342H429.033L429.028 78.502H428.188L428.193 74.342H427.333V73.502H428.193L428.188 71.932H429.028L429.033 73.502H430.168V74.342ZM434.991 78.597C434.721 78.587 434.458 78.537 434.201 78.447C433.948 78.3536 433.725 78.2286 433.531 78.072C433.341 77.912 433.203 77.7286 433.116 77.522L433.836 77.212C433.886 77.3253 433.976 77.432 434.106 77.532C434.236 77.632 434.386 77.712 434.556 77.772C434.726 77.832 434.898 77.862 435.071 77.862C435.255 77.862 435.426 77.8336 435.586 77.777C435.746 77.7203 435.876 77.637 435.976 77.527C436.08 77.4136 436.131 77.2786 436.131 77.122C436.131 76.9553 436.075 76.8253 435.961 76.732C435.851 76.6353 435.711 76.5603 435.541 76.507C435.375 76.4503 435.205 76.397 435.031 76.347C434.688 76.2603 434.381 76.157 434.111 76.037C433.841 75.9136 433.628 75.7586 433.471 75.572C433.318 75.382 433.241 75.1403 433.241 74.847C433.241 74.537 433.326 74.2686 433.496 74.042C433.67 73.8153 433.896 73.6403 434.176 73.517C434.456 73.3936 434.756 73.332 435.076 73.332C435.48 73.332 435.848 73.4186 436.181 73.592C436.515 73.7653 436.763 74.0003 436.926 74.297L436.251 74.692C436.195 74.572 436.108 74.467 435.991 74.377C435.875 74.2836 435.741 74.2103 435.591 74.157C435.441 74.1036 435.288 74.0753 435.131 74.072C434.938 74.0653 434.756 74.0903 434.586 74.147C434.42 74.2036 434.285 74.2903 434.181 74.407C434.081 74.5203 434.031 74.662 434.031 74.832C434.031 74.9986 434.085 75.1253 434.191 75.212C434.301 75.2986 434.443 75.3686 434.616 75.422C434.793 75.472 434.985 75.5303 435.191 75.597C435.495 75.6936 435.778 75.8053 436.041 75.932C436.305 76.0586 436.516 76.217 436.676 76.407C436.84 76.597 436.92 76.832 436.916 77.112C436.916 77.4186 436.825 77.687 436.641 77.917C436.458 78.1436 436.22 78.317 435.926 78.437C435.636 78.557 435.325 78.6103 434.991 78.597ZM441.744 73.502H442.584V78.502H441.744L441.709 77.657C441.552 77.947 441.336 78.182 441.059 78.362C440.786 78.542 440.459 78.632 440.079 78.632C439.712 78.632 439.369 78.5636 439.049 78.427C438.729 78.287 438.446 78.0953 438.199 77.852C437.956 77.6053 437.766 77.322 437.629 77.002C437.492 76.682 437.424 76.337 437.424 75.967C437.424 75.6103 437.491 75.2736 437.624 74.957C437.757 74.6403 437.942 74.3636 438.179 74.127C438.419 73.887 438.696 73.7003 439.009 73.567C439.322 73.4303 439.659 73.362 440.019 73.362C440.412 73.362 440.757 73.4553 441.054 73.642C441.351 73.8253 441.591 74.0636 441.774 74.357L441.744 73.502ZM440.064 77.817C440.394 77.817 440.679 77.737 440.919 77.577C441.162 77.4136 441.349 77.1936 441.479 76.917C441.612 76.6403 441.679 76.3353 441.679 76.002C441.679 75.662 441.612 75.3553 441.479 75.082C441.346 74.8053 441.157 74.587 440.914 74.427C440.674 74.2636 440.391 74.182 440.064 74.182C439.734 74.182 439.434 74.2636 439.164 74.427C438.894 74.5903 438.679 74.8103 438.519 75.087C438.362 75.3603 438.284 75.6653 438.284 76.002C438.284 76.3386 438.366 76.6453 438.529 76.922C438.692 77.1953 438.909 77.4136 439.179 77.577C439.449 77.737 439.744 77.817 440.064 77.817ZM443.642 78.502V71.002H444.482V78.502H443.642ZM447.834 78.632C447.374 78.632 446.954 78.5136 446.574 78.277C446.198 78.0403 445.896 77.7236 445.669 77.327C445.446 76.927 445.334 76.4853 445.334 76.002C445.334 75.6353 445.399 75.2936 445.529 74.977C445.659 74.657 445.838 74.377 446.064 74.137C446.294 73.8936 446.561 73.7036 446.864 73.567C447.168 73.4303 447.491 73.362 447.834 73.362C448.211 73.362 448.556 73.4386 448.869 73.592C449.186 73.742 449.456 73.952 449.679 74.222C449.906 74.492 450.074 74.8053 450.184 75.162C450.298 75.5186 450.339 75.9003 450.309 76.307H446.229C446.269 76.5903 446.363 76.8436 446.509 77.067C446.656 77.287 446.843 77.462 447.069 77.592C447.299 77.722 447.554 77.7886 447.834 77.792C448.134 77.792 448.406 77.7153 448.649 77.562C448.893 77.4053 449.089 77.192 449.239 76.922L450.094 77.122C449.894 77.5653 449.593 77.9286 449.189 78.212C448.786 78.492 448.334 78.632 447.834 78.632ZM446.204 75.647H449.464C449.438 75.367 449.348 75.112 449.194 74.882C449.041 74.6486 448.846 74.462 448.609 74.322C448.373 74.182 448.114 74.112 447.834 74.112C447.554 74.112 447.298 74.1803 447.064 74.317C446.831 74.4536 446.638 74.6386 446.484 74.872C446.334 75.102 446.241 75.3603 446.204 75.647ZM452.696 78.597C452.426 78.587 452.163 78.537 451.906 78.447C451.653 78.3536 451.43 78.2286 451.236 78.072C451.046 77.912 450.908 77.7286 450.821 77.522L451.541 77.212C451.591 77.3253 451.681 77.432 451.811 77.532C451.941 77.632 452.091 77.712 452.261 77.772C452.431 77.832 452.603 77.862 452.776 77.862C452.96 77.862 453.131 77.8336 453.291 77.777C453.451 77.7203 453.581 77.637 453.681 77.527C453.785 77.4136 453.836 77.2786 453.836 77.122C453.836 76.9553 453.78 76.8253 453.666 76.732C453.556 76.6353 453.416 76.5603 453.246 76.507C453.08 76.4503 452.91 76.397 452.736 76.347C452.393 76.2603 452.086 76.157 451.816 76.037C451.546 75.9136 451.333 75.7586 451.176 75.572C451.023 75.382 450.946 75.1403 450.946 74.847C450.946 74.537 451.031 74.2686 451.201 74.042C451.375 73.8153 451.601 73.6403 451.881 73.517C452.161 73.3936 452.461 73.332 452.781 73.332C453.185 73.332 453.553 73.4186 453.886 73.592C454.22 73.7653 454.468 74.0003 454.631 74.297L453.956 74.692C453.9 74.572 453.813 74.467 453.696 74.377C453.58 74.2836 453.446 74.2103 453.296 74.157C453.146 74.1036 452.993 74.0753 452.836 74.072C452.643 74.0653 452.461 74.0903 452.291 74.147C452.125 74.2036 451.99 74.2903 451.886 74.407C451.786 74.5203 451.736 74.662 451.736 74.832C451.736 74.9986 451.79 75.1253 451.896 75.212C452.006 75.2986 452.148 75.3686 452.321 75.422C452.498 75.472 452.69 75.5303 452.896 75.597C453.2 75.6936 453.483 75.8053 453.746 75.932C454.01 76.0586 454.221 76.217 454.381 76.407C454.545 76.597 454.625 76.832 454.621 77.112C454.621 77.4186 454.53 77.687 454.346 77.917C454.163 78.1436 453.925 78.317 453.631 78.437C453.341 78.557 453.03 78.6103 452.696 78.597Z" fill="#747681"/>
</g>
<defs>
<filter id="filter0_d_5260_91" x="341" y="67.6777" width="20" height="20.3516" filterUnits="userSpaceOnUse" color-interpolation-filters="sRGB">
<feFlood flood-opacity="0" result="BackgroundImageFix"/>
<feColorMatrix in="SourceAlpha" type="matrix" values="0 0 0 0 0 0 0 0 0 0 0 0 0 0 0 0 0 0 127 0" result="hardAlpha"/>
<feOffset dy="2"/>
<feGaussianBlur stdDeviation="2"/>
<feComposite in2="hardAlpha" operator="out"/>
<feColorMatrix type="matrix" values="0 0 0 0 0.101961 0 0 0 0 0.12549 0 0 0 0 0.172549 0 0 0 0.05 0"/>
<feBlend mode="normal" in2="BackgroundImageFix" result="effect1_dropShadow_5260_91"/>
<feBlend mode="normal" in="SourceGraphic" in2="effect1_dropShadow_5260_91" result="shape"/>
</filter>
<filter id="filter1_d_5260_91" x="351" y="4.50195" width="168" height="134" filterUnits="userSpaceOnUse" color-interpolation-filters="sRGB">
<feFlood flood-opacity="0" result="BackgroundImageFix"/>
<feColorMatrix in="SourceAlpha" type="matrix" values="0 0 0 0 0 0 0 0 0 0 0 0 0 0 0 0 0 0 127 0" result="hardAlpha"/>
<feOffset dy="8"/>
<feGaussianBlur stdDeviation="20"/>
<feComposite in2="hardAlpha" operator="out"/>
<feColorMatrix type="matrix" values="0 0 0 0 0.101961 0 0 0 0 0.12549 0 0 0 0 0.172549 0 0 0 0.09 0"/>
<feBlend mode="normal" in2="BackgroundImageFix" result="effect1_dropShadow_5260_91"/>
<feBlend mode="normal" in="SourceGraphic" in2="effect1_dropShadow_5260_91" result="shape"/>
</filter>
<linearGradient id="paint0_linear_5260_91" x1="351.293" y1="20.4897" x2="351.293" y2="194.49" gradientUnits="userSpaceOnUse">
<stop stop-color="#B8E716"/>
<stop offset="1" stop-color="#B8E716" stop-opacity="0"/>
</linearGradient>
</defs>
</svg>
