<svg width="58" height="25" viewBox="0 0 58 25" fill="none" xmlns="http://www.w3.org/2000/svg">
<rect x="0.5" y="0.216797" width="57" height="24" rx="12" fill="#9FA324"/>
<path d="M10 14.7168L13 11.7168L15 13.7168L19 9.7168" stroke="white" stroke-linecap="round" stroke-linejoin="round"/>
<path d="M15.5 9.7168H19V13.2168" stroke="white" stroke-linecap="round" stroke-linejoin="round"/>
<path d="M24.9 16.2168V15.4718C25.1567 15.2418 25.445 14.9851 25.765 14.7018C26.085 14.4151 26.4033 14.1168 26.72 13.8068C27.04 13.4935 27.3333 13.1835 27.6 12.8768C27.8667 12.5701 28.0817 12.2801 28.245 12.0068C28.4083 11.7301 28.49 11.4885 28.49 11.2818C28.49 11.0351 28.43 10.8101 28.31 10.6068C28.19 10.4001 28.0283 10.2351 27.825 10.1118C27.625 9.98846 27.4017 9.9268 27.155 9.9268C26.9083 9.9268 26.6817 9.98846 26.475 10.1118C26.2717 10.2351 26.1083 10.4001 25.985 10.6068C25.865 10.8101 25.805 11.0351 25.805 11.2818H24.965C24.965 10.8718 25.065 10.5018 25.265 10.1718C25.465 9.83846 25.73 9.57513 26.06 9.3818C26.39 9.18513 26.755 9.0868 27.155 9.0868C27.555 9.0868 27.9183 9.18513 28.245 9.3818C28.575 9.57846 28.8383 9.84346 29.035 10.1768C29.2317 10.5068 29.33 10.8751 29.33 11.2818C29.33 11.5151 29.2733 11.7668 29.16 12.0368C29.0467 12.3035 28.8917 12.5785 28.695 12.8618C28.4983 13.1451 28.275 13.4318 28.025 13.7218C27.775 14.0085 27.5117 14.2918 27.235 14.5718C26.9583 14.8518 26.6833 15.1201 26.41 15.3768H29.42V16.2168H24.9ZM32.4976 16.3468C32.0742 16.3468 31.6976 16.2518 31.3676 16.0618C31.0409 15.8685 30.7842 15.6118 30.5976 15.2918C30.4109 14.9685 30.3176 14.6101 30.3176 14.2168H31.1576C31.1576 14.4535 31.2126 14.6701 31.3226 14.8668C31.4326 15.0601 31.5876 15.2151 31.7876 15.3318C31.9876 15.4485 32.2242 15.5068 32.4976 15.5068C32.7342 15.5068 32.9542 15.4485 33.1576 15.3318C33.3642 15.2151 33.5309 15.0601 33.6576 14.8668C33.7842 14.6701 33.8476 14.4535 33.8476 14.2168C33.8476 13.9201 33.7709 13.6735 33.6176 13.4768C33.4676 13.2768 33.2576 13.1285 32.9876 13.0318C32.7209 12.9318 32.4159 12.8818 32.0726 12.8818V12.2068C32.5459 12.2068 32.9242 12.1085 33.2076 11.9118C33.4942 11.7151 33.6376 11.4251 33.6376 11.0418C33.6376 10.8385 33.5826 10.6518 33.4726 10.4818C33.3626 10.3118 33.2176 10.1768 33.0376 10.0768C32.8609 9.97346 32.6709 9.9218 32.4676 9.9218C32.2609 9.9218 32.0626 9.97346 31.8726 10.0768C31.6826 10.1768 31.5276 10.3118 31.4076 10.4818C31.2876 10.6518 31.2276 10.8385 31.2276 11.0418H30.3876C30.3876 10.7718 30.4426 10.5185 30.5526 10.2818C30.6659 10.0451 30.8192 9.8368 31.0126 9.6568C31.2092 9.4768 31.4309 9.3368 31.6776 9.2368C31.9242 9.13346 32.1842 9.0818 32.4576 9.0818C32.8142 9.0818 33.1459 9.17013 33.4526 9.3468C33.7592 9.52346 34.0059 9.76013 34.1926 10.0568C34.3826 10.3535 34.4776 10.6818 34.4776 11.0418C34.4776 11.3651 34.3959 11.6635 34.2326 11.9368C34.0692 12.2101 33.8476 12.4018 33.5676 12.5118C33.8109 12.5951 34.0159 12.7251 34.1826 12.9018C34.3492 13.0751 34.4742 13.2751 34.5576 13.5018C34.6442 13.7285 34.6876 13.9668 34.6876 14.2168C34.6876 14.6068 34.5859 14.9635 34.3826 15.2868C34.1826 15.6101 33.9159 15.8685 33.5826 16.0618C33.2526 16.2518 32.8909 16.3468 32.4976 16.3468ZM35.3883 16.7768L35.6983 15.0868H36.5383L35.9483 16.7768H35.3883ZM39.8117 16.3468C39.3784 16.3468 38.9851 16.2418 38.6317 16.0318C38.2784 15.8218 37.9984 15.5418 37.7917 15.1918C37.5884 14.8385 37.4867 14.4501 37.4867 14.0268H38.3267C38.3267 14.2968 38.3934 14.5451 38.5267 14.7718C38.6601 14.9951 38.8384 15.1735 39.0617 15.3068C39.2884 15.4401 39.5384 15.5068 39.8117 15.5068C40.0817 15.5068 40.3284 15.4401 40.5517 15.3068C40.7751 15.1735 40.9534 14.9951 41.0867 14.7718C41.2201 14.5451 41.2867 14.2968 41.2867 14.0268C41.2867 13.7568 41.2234 13.5085 41.0967 13.2818C40.9734 13.0551 40.7917 12.8751 40.5517 12.7418C40.3117 12.6051 40.0201 12.5368 39.6767 12.5368H37.9517L38.6317 9.2168H41.9517V10.0568H39.3117L38.9867 11.6968L39.7117 11.7018C40.1884 11.7118 40.6067 11.8185 40.9667 12.0218C41.3301 12.2218 41.6134 12.4951 41.8167 12.8418C42.0234 13.1851 42.1267 13.5801 42.1267 14.0268C42.1267 14.3435 42.0667 14.6435 41.9467 14.9268C41.8267 15.2068 41.6601 15.4535 41.4467 15.6668C41.2334 15.8801 40.9867 16.0468 40.7067 16.1668C40.4301 16.2868 40.1317 16.3468 39.8117 16.3468ZM43.5727 16.2168L47.6127 9.2168H48.5827L44.5427 16.2168H43.5727ZM44.4027 12.0318C44.166 12.0318 43.951 11.9751 43.7577 11.8618C43.5677 11.7485 43.4143 11.5951 43.2977 11.4018C43.181 11.2085 43.1227 10.9935 43.1227 10.7568C43.1227 10.5135 43.181 10.2968 43.2977 10.1068C43.4143 9.91346 43.5693 9.76013 43.7627 9.6468C43.956 9.53346 44.1693 9.4768 44.4027 9.4768C44.636 9.4768 44.8493 9.53513 45.0427 9.6518C45.236 9.76513 45.3893 9.91846 45.5027 10.1118C45.6193 10.3018 45.6777 10.5168 45.6777 10.7568C45.6777 10.9968 45.6193 11.2135 45.5027 11.4068C45.386 11.5968 45.231 11.7485 45.0377 11.8618C44.8443 11.9751 44.6327 12.0318 44.4027 12.0318ZM44.4027 11.4168C44.586 11.4168 44.741 11.3535 44.8677 11.2268C44.9977 11.0968 45.0627 10.9401 45.0627 10.7568C45.0627 10.5701 44.9977 10.4135 44.8677 10.2868C44.741 10.1568 44.586 10.0918 44.4027 10.0918C44.2193 10.0918 44.0627 10.1568 43.9327 10.2868C43.8027 10.4135 43.7377 10.5701 43.7377 10.7568C43.7377 10.9401 43.8027 11.0968 43.9327 11.2268C44.0627 11.3535 44.2193 11.4168 44.4027 11.4168ZM47.7577 15.9618C47.5243 15.9618 47.3093 15.9035 47.1127 15.7868C46.9193 15.6668 46.7643 15.5101 46.6477 15.3168C46.5343 15.1201 46.4777 14.9085 46.4777 14.6818C46.4777 14.4418 46.536 14.2251 46.6527 14.0318C46.7727 13.8385 46.9293 13.6851 47.1227 13.5718C47.316 13.4585 47.5277 13.4018 47.7577 13.4018C47.9977 13.4018 48.2143 13.4618 48.4077 13.5818C48.601 13.6985 48.7543 13.8535 48.8677 14.0468C48.981 14.2401 49.0377 14.4518 49.0377 14.6818C49.0377 14.9185 48.9793 15.1335 48.8627 15.3268C48.7493 15.5201 48.596 15.6751 48.4027 15.7918C48.2093 15.9051 47.9943 15.9618 47.7577 15.9618ZM47.7577 15.3468C47.941 15.3468 48.0977 15.2818 48.2277 15.1518C48.3577 15.0218 48.4227 14.8651 48.4227 14.6818C48.4227 14.4985 48.3577 14.3418 48.2277 14.2118C48.0977 14.0818 47.941 14.0168 47.7577 14.0168C47.5743 14.0168 47.4177 14.0818 47.2877 14.2118C47.1577 14.3418 47.0927 14.4985 47.0927 14.6818C47.0927 14.8651 47.1577 15.0218 47.2877 15.1518C47.4177 15.2818 47.5743 15.3468 47.7577 15.3468Z" fill="white"/>
</svg>
