<svg width="101" height="33" viewBox="0 0 101 33" fill="none" xmlns="http://www.w3.org/2000/svg">
<rect y="0.87207" width="101" height="31.4541" rx="15.7271" fill="#FDF7DF"/>
<path d="M27.6181 21.0541C27.0908 21.0541 26.5821 20.9724 26.0921 20.8091C25.6021 20.6411 25.1728 20.4031 24.8041 20.0951C24.4401 19.7871 24.1811 19.4207 24.0271 18.9961L25.1261 18.5831C25.2195 18.8444 25.3921 19.0731 25.6441 19.2691C25.9008 19.4604 26.2018 19.6097 26.5471 19.7171C26.8925 19.8244 27.2495 19.8781 27.6181 19.8781C28.0381 19.8781 28.4278 19.8104 28.7871 19.6751C29.1511 19.5351 29.4451 19.3414 29.6691 19.0941C29.8931 18.8467 30.0051 18.5574 30.0051 18.2261C30.0051 17.8854 29.8885 17.6077 29.6551 17.3931C29.4218 17.1737 29.1231 17.0011 28.7591 16.8751C28.3951 16.7444 28.0148 16.6441 27.6181 16.5741C26.9415 16.4621 26.3348 16.3034 25.7981 16.0981C25.2661 15.8881 24.8438 15.5964 24.5311 15.2231C24.2231 14.8497 24.0691 14.3574 24.0691 13.7461C24.0691 13.1767 24.2325 12.6797 24.5591 12.2551C24.8905 11.8304 25.3268 11.5014 25.8681 11.2681C26.4095 11.0347 26.9928 10.9181 27.6181 10.9181C28.1361 10.9181 28.6378 10.9997 29.1231 11.1631C29.6131 11.3217 30.0448 11.5551 30.4181 11.8631C30.7915 12.1711 31.0598 12.5467 31.2231 12.9901L30.1101 13.3961C30.0168 13.1301 29.8418 12.9014 29.5851 12.7101C29.3331 12.5141 29.0345 12.3647 28.6891 12.2621C28.3485 12.1547 27.9915 12.1011 27.6181 12.1011C27.2028 12.0964 26.8155 12.1641 26.4561 12.3041C26.0968 12.4441 25.8051 12.6377 25.5811 12.8851C25.3571 13.1324 25.2451 13.4194 25.2451 13.7461C25.2451 14.1381 25.3478 14.4391 25.5531 14.6491C25.7631 14.8544 26.0478 15.0084 26.4071 15.1111C26.7665 15.2137 27.1701 15.3047 27.6181 15.3841C28.2528 15.4914 28.8408 15.6617 29.3821 15.8951C29.9235 16.1237 30.3575 16.4294 30.6841 16.8121C31.0155 17.1947 31.1811 17.6661 31.1811 18.2261C31.1811 18.7954 31.0155 19.2924 30.6841 19.7171C30.3575 20.1417 29.9235 20.4707 29.3821 20.7041C28.8408 20.9374 28.2528 21.0541 27.6181 21.0541ZM39.0368 16.5181V20.8721H37.8608V16.7771C37.8608 16.4224 37.7745 16.1004 37.6018 15.8111C37.4291 15.5217 37.1981 15.2931 36.9088 15.1251C36.6195 14.9524 36.2975 14.8661 35.9428 14.8661C35.5928 14.8661 35.2708 14.9524 34.9768 15.1251C34.6875 15.2931 34.4565 15.5217 34.2838 15.8111C34.1111 16.1004 34.0248 16.4224 34.0248 16.7771V20.8721H32.8488V10.3721H34.0248V14.7471C34.2721 14.4204 34.5848 14.1614 34.9628 13.9701C35.3408 13.7741 35.7515 13.6761 36.1948 13.6761C36.7175 13.6761 37.1935 13.8044 37.6228 14.0611C38.0568 14.3131 38.3998 14.6537 38.6518 15.0831C38.9085 15.5124 39.0368 15.9907 39.0368 16.5181ZM40.4367 13.8721H41.6127V20.8721H40.4367V13.8721ZM41.0387 12.7311C40.852 12.7311 40.6957 12.6704 40.5697 12.5491C40.4437 12.4277 40.3807 12.2761 40.3807 12.0941C40.3807 11.9121 40.4437 11.7604 40.5697 11.6391C40.6957 11.5177 40.8497 11.4571 41.0317 11.4571C41.2137 11.4571 41.3677 11.5177 41.4937 11.6391C41.6197 11.7604 41.6827 11.9121 41.6827 12.0941C41.6827 12.2761 41.6197 12.4277 41.4937 12.5491C41.3723 12.6704 41.2207 12.7311 41.0387 12.7311ZM44.4017 24.3721H43.2257V13.8721H44.4017V15.0691C44.6397 14.6584 44.9571 14.3271 45.3537 14.0751C45.7504 13.8184 46.2217 13.6901 46.7677 13.6901C47.2764 13.6901 47.7524 13.7857 48.1957 13.9771C48.6437 14.1684 49.0357 14.4344 49.3717 14.7751C49.7077 15.1111 49.9714 15.5007 50.1627 15.9441C50.3541 16.3874 50.4497 16.8634 50.4497 17.3721C50.4497 17.8807 50.3541 18.3591 50.1627 18.8071C49.9714 19.2551 49.7077 19.6494 49.3717 19.9901C49.0357 20.3261 48.6437 20.5897 48.1957 20.7811C47.7524 20.9724 47.2764 21.0681 46.7677 21.0681C46.2217 21.0681 45.7504 20.9421 45.3537 20.6901C44.9571 20.4334 44.6397 20.0997 44.4017 19.6891V24.3721ZM46.7537 14.8311C46.3011 14.8311 45.9044 14.9454 45.5637 15.1741C45.2231 15.4027 44.9594 15.7084 44.7727 16.0911C44.5907 16.4737 44.4997 16.9007 44.4997 17.3721C44.4997 17.8387 44.5907 18.2657 44.7727 18.6531C44.9594 19.0404 45.2207 19.3484 45.5567 19.5771C45.8974 19.8057 46.2964 19.9201 46.7537 19.9201C47.2064 19.9201 47.6217 19.8081 47.9997 19.5841C48.3777 19.3554 48.6811 19.0497 48.9097 18.6671C49.1384 18.2797 49.2527 17.8481 49.2527 17.3721C49.2527 16.9054 49.1407 16.4807 48.9167 16.0981C48.6927 15.7107 48.3917 15.4027 48.0137 15.1741C47.6357 14.9454 47.2157 14.8311 46.7537 14.8311ZM52.7963 24.3721H51.6203V13.8721H52.7963V15.0691C53.0343 14.6584 53.3516 14.3271 53.7483 14.0751C54.1449 13.8184 54.6163 13.6901 55.1623 13.6901C55.6709 13.6901 56.1469 13.7857 56.5903 13.9771C57.0383 14.1684 57.4303 14.4344 57.7663 14.7751C58.1023 15.1111 58.3659 15.5007 58.5573 15.9441C58.7486 16.3874 58.8443 16.8634 58.8443 17.3721C58.8443 17.8807 58.7486 18.3591 58.5573 18.8071C58.3659 19.2551 58.1023 19.6494 57.7663 19.9901C57.4303 20.3261 57.0383 20.5897 56.5903 20.7811C56.1469 20.9724 55.6709 21.0681 55.1623 21.0681C54.6163 21.0681 54.1449 20.9421 53.7483 20.6901C53.3516 20.4334 53.0343 20.0997 52.7963 19.6891V24.3721ZM55.1483 14.8311C54.6956 14.8311 54.2989 14.9454 53.9583 15.1741C53.6176 15.4027 53.3539 15.7084 53.1673 16.0911C52.9853 16.4737 52.8943 16.9007 52.8943 17.3721C52.8943 17.8387 52.9853 18.2657 53.1673 18.6531C53.3539 19.0404 53.6153 19.3484 53.9513 19.5771C54.2919 19.8057 54.6909 19.9201 55.1483 19.9201C55.6009 19.9201 56.0163 19.8081 56.3943 19.5841C56.7723 19.3554 57.0756 19.0497 57.3043 18.6671C57.5329 18.2797 57.6473 17.8481 57.6473 17.3721C57.6473 16.9054 57.5353 16.4807 57.3113 16.0981C57.0873 15.7107 56.7863 15.4027 56.4083 15.1741C56.0303 14.9454 55.6103 14.8311 55.1483 14.8311ZM59.9191 13.8721H61.0951V20.8721H59.9191V13.8721ZM60.5211 12.7311C60.3344 12.7311 60.1781 12.6704 60.0521 12.5491C59.9261 12.4277 59.8631 12.2761 59.8631 12.0941C59.8631 11.9121 59.9261 11.7604 60.0521 11.6391C60.1781 11.5177 60.3321 11.4571 60.5141 11.4571C60.6961 11.4571 60.8501 11.5177 60.9761 11.6391C61.1021 11.7604 61.1651 11.9121 61.1651 12.0941C61.1651 12.2761 61.1021 12.4277 60.9761 12.5491C60.8548 12.6704 60.7031 12.7311 60.5211 12.7311ZM68.9235 16.5181V20.8721H67.7475V16.7771C67.7475 16.4224 67.6612 16.1004 67.4885 15.8111C67.3158 15.5217 67.0848 15.2931 66.7955 15.1251C66.5062 14.9524 66.1842 14.8661 65.8295 14.8661C65.4795 14.8661 65.1575 14.9524 64.8635 15.1251C64.5742 15.2931 64.3432 15.5217 64.1705 15.8111C63.9978 16.1004 63.9115 16.4224 63.9115 16.7771V20.8721H62.7355V13.8721H63.9115V14.7471C64.1588 14.4204 64.4715 14.1614 64.8495 13.9701C65.2275 13.7741 65.6382 13.6761 66.0815 13.6761C66.6042 13.6761 67.0802 13.8044 67.5095 14.0611C67.9435 14.3131 68.2865 14.6537 68.5385 15.0831C68.7952 15.5124 68.9235 15.9907 68.9235 16.5181ZM75.6537 13.8721H76.8297V21.0961C76.8297 21.5581 76.7293 21.9874 76.5287 22.3841C76.3327 22.7854 76.0667 23.1331 75.7307 23.4271C75.3947 23.7257 75.012 23.9567 74.5827 24.1201C74.1533 24.2881 73.7053 24.3721 73.2387 24.3721C72.7533 24.3721 72.2843 24.2624 71.8317 24.0431C71.379 23.8284 70.9823 23.5391 70.6417 23.1751C70.3057 22.8157 70.063 22.4121 69.9137 21.9641L70.9917 21.4741C71.0803 21.7961 71.239 22.0854 71.4677 22.3421C71.701 22.6034 71.9717 22.8087 72.2797 22.9581C72.5923 23.1121 72.912 23.1891 73.2387 23.1891C73.5467 23.1891 73.843 23.1354 74.1277 23.0281C74.417 22.9207 74.676 22.7714 74.9047 22.5801C75.138 22.3934 75.32 22.1717 75.4507 21.9151C75.586 21.6631 75.6537 21.3901 75.6537 21.0961V19.7031C75.4157 20.1044 75.1007 20.4311 74.7087 20.6831C74.3213 20.9304 73.8687 21.0541 73.3507 21.0541C72.856 21.0541 72.3917 20.9584 71.9577 20.7671C71.5237 20.5757 71.1433 20.3121 70.8167 19.9761C70.49 19.6354 70.2333 19.2434 70.0467 18.8001C69.86 18.3567 69.7667 17.8807 69.7667 17.3721C69.7667 16.8634 69.86 16.3874 70.0467 15.9441C70.2333 15.4961 70.49 15.1041 70.8167 14.7681C71.1433 14.4274 71.5237 14.1614 71.9577 13.9701C72.3917 13.7787 72.856 13.6831 73.3507 13.6831C73.8687 13.6831 74.3213 13.8067 74.7087 14.0541C75.1007 14.3014 75.4157 14.6281 75.6537 15.0341V13.8721ZM73.3577 19.9131C73.8103 19.9131 74.2023 19.7964 74.5337 19.5631C74.8697 19.3297 75.1287 19.0194 75.3107 18.6321C75.4927 18.2447 75.5837 17.8247 75.5837 17.3721C75.5837 16.9054 75.4903 16.4807 75.3037 16.0981C75.1217 15.7107 74.8627 15.4027 74.5267 15.1741C74.1953 14.9407 73.8057 14.8241 73.3577 14.8241C72.919 14.8241 72.5177 14.9384 72.1537 15.1671C71.7897 15.3957 71.5003 15.7037 71.2857 16.0911C71.0757 16.4737 70.9707 16.9007 70.9707 17.3721C70.9707 17.8434 71.078 18.2727 71.2927 18.6601C71.512 19.0427 71.8013 19.3484 72.1607 19.5771C72.5247 19.8011 72.9237 19.9131 73.3577 19.9131Z" fill="#FDCF24"/>
</svg>
